<!DOCTYPE svg PUBLIC "-//W3C//DTD SVG 1.1//EN" "http://www.w3.org/Graphics/SVG/1.1/DTD/svg11.dtd">
<!-- Uploaded to: SVG Repo, www.svgrepo.com, Transformed by: SVG Repo Mixer Tools -->
<svg fill="#9e0a1c" height="800px" width="800px" version="1.1" id="Layer_1" xmlns="http://www.w3.org/2000/svg" xmlns:xlink="http://www.w3.org/1999/xlink" viewBox="0 0 511.999 511.999" xml:space="preserve" stroke="#9e0a1c">
<g id="SVGRepo_bgCarrier" stroke-width="0"/>
<g id="SVGRepo_tracerCarrier" stroke-linecap="round" stroke-linejoin="round"/>
<g id="SVGRepo_iconCarrier"> <g> <g> <path d="M318.089,83.274c-0.177-0.944-0.471-1.871-0.839-2.753c-0.368-0.885-0.81-1.738-1.34-2.547 c-0.545-0.795-1.163-1.56-1.84-2.237c-3.415-3.415-8.493-4.975-13.278-4.019c-0.942,0.191-1.869,0.471-2.753,0.839 c-0.898,0.368-1.752,0.824-2.547,1.354c-0.81,0.53-1.56,1.148-2.237,1.825s-1.295,1.441-1.825,2.237 c-0.53,0.81-0.986,1.663-1.354,2.547c-0.368,0.883-0.662,1.809-0.839,2.753c-0.191,0.955-0.294,1.914-0.294,2.885 c0,0.955,0.103,1.928,0.294,2.869c0.177,0.944,0.471,1.871,0.839,2.754c0.368,0.885,0.824,1.738,1.354,2.547 c0.53,0.795,1.148,1.56,1.825,2.237s1.428,1.295,2.237,1.825c0.795,0.53,1.649,0.986,2.547,1.354 c0.883,0.368,1.811,0.648,2.753,0.839c0.942,0.191,1.914,0.278,2.87,0.278c3.871,0,7.669-1.56,10.407-4.298 c0.677-0.677,1.295-1.441,1.84-2.237c0.53-0.81,0.971-1.663,1.34-2.547c0.368-0.883,0.662-1.809,0.839-2.753 c0.191-0.942,0.294-1.914,0.294-2.869C318.384,85.188,318.281,84.23,318.089,83.274z"/> </g> </g> <g> <g> <path d="M366.788,482.56H325.32l-54.598-48.333V329.745l75.997-67.28c3.796-3.361,5.533-8.376,4.786-13.251 c16.117-21.993,24.357-49.121,22.85-76.587l-8.71-158.712C365.214,6.109,358.761,0,350.945,0H161.055 c-7.816,0-14.27,6.109-14.698,13.913l-8.71,158.712c-1.507,27.466,6.733,54.592,22.85,76.587 c-0.749,4.877,0.989,9.892,4.785,13.251l75.997,67.28v104.482l-54.598,48.333h-41.469c-8.13,0-14.72,6.592-14.72,14.72 s6.59,14.72,14.72,14.72h47.047h127.48h47.047c8.13,0,14.72-6.592,14.72-14.72S374.918,482.56,366.788,482.56z M167.045,174.239 l4.027-73.366h88.434c8.13,0,14.72-6.592,14.72-14.72c0-8.128-6.59-14.72-14.72-14.72h-86.819l2.302-41.992h162.021l7.947,144.799 c1.267,23.09-6.163,45.052-21.013,62.484H188.058C173.208,219.291,165.778,197.327,167.045,174.239z M213.874,266.163h84.252 L256,303.456L213.874,266.163z M231.095,482.56L256,460.512l24.905,22.048H231.095z"/> </g> </g> </g>
</svg>