<?xml version="1.0" encoding="UTF-8"?>
<svg id="Layer_1" data-name="Layer 1" xmlns="http://www.w3.org/2000/svg" viewBox="0 0 225.03 279.77">
  <defs>
    <style>
      .cls-1 {
        fill: #101213;
      }

      .cls-1, .cls-2, .cls-3, .cls-4, .cls-5, .cls-6, .cls-7, .cls-8, .cls-9, .cls-10, .cls-11, .cls-12, .cls-13, .cls-14, .cls-15, .cls-16, .cls-17, .cls-18, .cls-19, .cls-20, .cls-21, .cls-22, .cls-23, .cls-24, .cls-25, .cls-26 {
        stroke-width: 0px;
      }

      .cls-27 {
        letter-spacing: -.02em;
      }

      .cls-2 {
        fill: #222220;
      }

      .cls-3 {
        fill: #f1ddbc;
      }

      .cls-4 {
        fill: #515857;
      }

      .cls-5 {
        fill: #f2a8a0;
      }

      .cls-6 {
        fill: #dcd8cf;
      }

      .cls-7 {
        fill: #fad1c6;
      }

      .cls-28 {
        letter-spacing: -.01em;
      }

      .cls-8 {
        fill: #3a3d3b;
      }

      .cls-29 {
        letter-spacing: 0em;
      }

      .cls-9 {
        fill: #f1a59b;
      }

      .cls-10 {
        fill: #f0c3ba;
      }

      .cls-11 {
        fill: #da6f60;
      }

      .cls-12 {
        fill: #ce958f;
      }

      .cls-30 {
        fill: #e86d64;
        font-family: Cinzel-Regular, Cinzel;
        font-size: 41.59px;
        font-variation-settings: 'wght' 400;
        isolation: isolate;
        stroke: #e86d64;
        stroke-miterlimit: 10;
      }

      .cls-13 {
        fill: #e7ae80;
      }

      .cls-14 {
        fill: #e38678;
      }

      .cls-15 {
        fill: #252727;
      }

      .cls-16 {
        fill: #ec9a90;
      }

      .cls-17 {
        fill: #252526;
      }

      .cls-18 {
        fill: #edeae5;
      }

      .cls-19 {
        fill: #fbdbbf;
      }

      .cls-31 {
        letter-spacing: 0em;
      }

      .cls-20 {
        fill: #8b6a65;
      }

      .cls-21 {
        fill: #1d1d1c;
      }

      .cls-22 {
        fill: #f7c6a7;
      }

      .cls-23 {
        fill: #e9b7ae;
      }

      .cls-24 {
        fill: #f6a193;
      }

      .cls-25 {
        fill: #f8edd8;
      }

      .cls-26 {
        fill: #faf7f0;
      }

      .cls-32 {
        letter-spacing: -.02em;
      }
    </style>
  </defs>
  <path class="cls-18" d="m193.82,239.74c.5-.65,1-1.3,1.5-1.95-.5.65-1,1.3-1.5,1.95Z"/>
  <path class="cls-18" d="m197.18,235.4c.34-.49.67-.97,1.01-1.46-.34.49-.67.97-1.01,1.46Z"/>
  <path class="cls-18" d="m199.59,232.03c.33-.49.66-.98.99-1.47-.33.49-.66.98-.99,1.47Z"/>
  <path class="cls-18" d="m200.56,230.58c.33-.49.66-.97.99-1.46-.33.49-.66.97-.99,1.46Z"/>
  <path class="cls-18" d="m195.73,237.34c.27-.34.54-.69.81-1.03-.27.34-.54.69-.81,1.03Z"/>
  <path class="cls-18" d="m198.16,233.97c.15-.18.31-.36.46-.55-.15.18-.31.36-.46.55Z"/>
  <path class="cls-15" d="m156.84,6.83c.46.48.93.95,1.39,1.43.36.48.71.96,1.07,1.45.13.16.25.32.37.48.13.17.26.35.39.52.12.09.16.21.13.36.44.85.89,1.7,1.33,2.54.07.13.1.27.09.41.02.64-.16,1.37.09,1.9,1.67,3.6,1.81,7.43,1.81,11.29,0,10.73-.02,21.47.04,32.2,0,.8.56,1.61.86,2.41.07.13.1.26.09.4,1.57,2.57,1.5,5.41,1.44,8.28-.07,3.59.04,7.19-.04,10.79-.06,2.86-.28,5.71-.44,8.57-.16.14-.31.28-.47.42-.49.37-.98.73-1.47,1.1.49.59.98,1.17,1.48,1.76.16.13.31.27.47.4.15,1.59.39,3.17.44,4.76.2,6.64.34,13.28.49,19.93-.32.34-.64.68-.96,1.02-.31.14-.61.28-.92.42-.34.85-.97,1.71-.97,2.56-.05,44.46-.05,88.91-.02,133.37,0,.82.36,1.64.54,2.46-.05.31-.1.62-.14.93-.1.5-.21.99-.31,1.49-.06.31-.12.61-.18.92-.3.8-.59,1.61-.89,2.41-.01.3-.03.6-.04.89-.5.97-1.01,1.94-1.51,2.91-.21.25-.41.5-.62.75v.05c-.12.22-.22.44-.33.66-.13.16-.27.32-.4.48-.35.47-.7.94-1.05,1.41l.04-.04c-.17.19-.33.37-.5.56-.96.9-1.92,1.8-2.88,2.7-.22.14-.44.28-.67.43l-.06.05c-.14.05-.25.14-.32.27-.16-.02-.25.05-.28.21-.41.26-.81.52-1.22.79-.12,0-.19.05-.23.17-1.45.57-2.89,1.13-4.34,1.7-4.12.32-8.24.61-12.35.99-.43.04-.81.56-1.21.85-.88.03-1.76.08-2.64.08H36.94c-1.68,0-3.36-.05-5.04-.08-1.35-.25-2.69-.52-4.04-.75-4.11-.69-8.23-1.37-12.34-2.06-.71-.31-1.41-.61-2.12-.92-.13.05-.23.01-.3-.11-.14-1.34-.17-1.37-1.04-.75-.29-.1-.57-.2-.86-.3-.15-.12-.31-.24-.46-.36-.18-.17-.35-.34-.53-.51-.98-1.09-1.95-2.18-2.93-3.27-.34-.48-.68-.97-1.02-1.45l.02.02c-.33-.49-.66-.98-.99-1.46l.02.02c-.45-.83-.9-1.66-1.35-2.49-.19-.48-.37-.95-.56-1.43.05-1.75.58-3.63-1.34-4.84-.03-.32-.05-.64-.08-.96.33-.91.93-1.82.94-2.74.07-9.45.04-18.9.04-28.35v-27.63c0-23.45,0-46.89-.02-70.34,0-1.99-.38-3.97-.36-5.96.05-4.47.36-8.94.3-13.4-.02-1.3-.93-2.59-1.43-3.89l.02.02c-.15-2.38-.41-4.77-.42-7.15-.05-7.77,0-15.54-.06-23.31,0-.79-.59-1.58-.9-2.37.15-.32.3-.65.45-.97,2.27-.26,2.43-1.91,2.43-3.68V28.54c0-.87.34-1.76.2-2.59-.3-1.88-.79-3.73-1.2-5.6l.09-.96c.63-1,1.27-2,1.94-3.07.96.05,2.13.12,3.29.18,0,.18.02.36.02.54.02.15,0,.29-.09.42-1.28.69-1.69,1.63-.82,2.92-.05.31-.09.62-.14.94-.3.96-.86,1.93-.87,2.89-.04,48.84-.04,97.69-.04,146.53,0,27.72,0,55.43.04,83.15,0,.89.56,1.77.85,2.66.02.33.03.65.05.98-.88,1.56-.48,2.82.9,3.84,1.79,2.75,3.57,5.5,5.36,8.25l-.02-.02c.17.16.34.33.52.49,1.06.68,2.13,1.36,3.19,2.04h.08s.6.82.6.82c.33.16.66.31.99.47.3.01.6.02.9.03.17.17.35.34.52.5.34.09.69.18,1.03.27.3.08.6.15.9.23.64.14,1.28.28,1.93.42.32.02.64.04.96.06.73.3,1.45.85,2.18.85,38.13.04,76.26.04,114.39.01.98,0,1.97-.4,2.95-.61-.09-.1-.18-.21-.28-.29-.06-.04-.15-.04-.23-.06,2.09-.82,4.26-1.48,6.24-2.51,3.47-1.82,5.94-4.71,7.87-8.09.12-.2.25-.39.37-.59.19-.44.38-.89.56-1.33.4-.53,1.06-1.01,1.17-1.59.48-2.58,1.15-5.19,1.15-7.79.06-75.34.05-150.68.02-226.02,0-2.07-.27-4.15-.61-6.19-.14-.82-.81-1.56-1.25-2.33-1.9-4.66-4.62-8.64-9.21-11.05-1.3-.61-2.6-1.22-3.89-1.83-.46-.18-.92-.36-1.38-.54-1.17-.35-2.34-.99-3.52-1-16.05-.07-32.1-.05-48.15-.05-21.75,0-43.5,0-65.25.04-.89,0-1.77.56-2.65.86-.32.03-.64.05-.96.08-.48.13-.97.27-1.45.4-.31.05-.61.1-.92.15-1.99-.4-3.71-.08-4.86,1.79-.09.11-.2.15-.34.1-.54.33-1.07.67-1.61,1-.48.44-.96.88-1.44,1.31-.18.17-.36.34-.53.5l.04-.03c-.17.17-.34.35-.51.52v-.05c-.13.03-.27.05-.4.07l-.5.5c-.44.49-.88.97-1.32,1.46l-1.08,1.48c0,.15-.04.28-.13.4h-.87c.03-.56.07-1.12.12-1.99-.95.39-1.55.63-2.32.95-.1-.78-.18-1.37-.26-1.97.45-.62.91-1.24,1.36-1.86.53-.6,1.06-1.21,1.6-1.81.18-.18.37-.36.55-.53.44-.37.88-.73,1.32-1.1.15-.13.31-.26.46-.39.48-.33.97-.66,1.45-1h0c.49-.32.97-.66,1.46-.99l-.03.03c.49-.33.98-.67,1.47-1h0c2.37-.62,4.74-1.22,7.09-1.89.29-.08.46-.55.68-.84.32-.01.65-.02.97-.03,1.16.3,2.32.82,3.49.84,1.9.04,3.81-.37,5.72-.38,34.58-.03,69.16-.04,103.75,0,3.1,0,6.2.42,9.31.61.4.02.81-.21,1.22-.33.62.24,1.24.49,1.86.73.18.13.37.26.55.39.15,0,.28.02.41.09.53.28,1.06.56,1.59.84.75.35,1.49.7,2.24,1.06l-.02-.02c.48.36.96.71,1.45,1.07,0,.12.01.23.05.34.5.48,1,.96,1.51,1.44l.05.07Z"/>
  <path class="cls-2" d="m1.49,105.72c.5,1.3,1.41,2.59,1.43,3.89.06,4.46-.25,8.93-.3,13.4-.02,1.98.36,3.97.36,5.96.03,23.45.02,46.89.02,70.34v27.63c0,9.45.03,18.9-.04,28.35,0,.91-.61,1.82-.94,2.74-.15-1.58-.42-3.16-.42-4.74-.02-48.07,0-96.13,0-144.2,0-1.12-.06-2.24-.09-3.36h-.01Z"/>
  <path class="cls-2" d="m2.01,20.34c.41,1.86.91,3.72,1.2,5.6.13.83-.2,1.73-.2,2.59-.02,13.24,0,26.47,0,39.71,0,1.77-.16,3.42-2.43,3.68.34-1.08.96-2.17.96-3.25.06-14.85.03-29.7.06-44.55,0-1.26.27-2.52.42-3.78h-.01Z"/>
  <path class="cls-21" d="m164.42,61.81c-.3-.8-.86-1.6-.86-2.41-.06-10.73-.04-21.47-.04-32.2,0-3.86-.13-7.68-1.81-11.29-.25-.53-.07-1.26-.09-1.9.6,1.04,1.2,2.09,1.8,3.13.35,2.02,1,4.04,1.01,6.07.07,12.87,0,25.73-.01,38.6Z"/>
  <path class="cls-2" d="m.12,72.9c.31.79.9,1.58.9,2.37.07,7.77,0,15.54.06,23.31.02,2.38.27,4.77.42,7.15-.52-.82-1.49-1.64-1.49-2.46-.05-10.13.05-20.25.1-30.38h.01Z"/>
  <path class="cls-21" d="m164.52,62.21c.29.1.57.21.86.31.65,1.46,1.81,2.9,1.86,4.38.21,6.46.19,12.93.01,19.38-.03,1.2-1.15,2.38-1.77,3.57.15-2.86.38-5.71.44-8.57.08-3.59-.04-7.19.04-10.79.06-2.87.13-5.71-1.44-8.28Z"/>
  <path class="cls-21" d="m166.42,118.21c-.16-6.64-.3-13.29-.49-19.93-.05-1.59-.29-3.17-.44-4.76.15.07.3.08.45.03.1.13.22.19.39.19l-.06-.07c.19.25.37.5.56.75.09.23.17.47.26.7.09,6.28.2,12.56.24,18.84,0,1.25-.24,2.5-.37,3.75-.18.16-.36.32-.53.48v.02Z"/>
  <path class="cls-2" d="m5.36,11.56c.08.59.15,1.19.26,1.97.77-.32,1.37-.56,2.32-.95-.05.87-.09,1.43-.12,1.99-.16.64-.32,1.29-.49,1.93-1.17-.06-2.33-.13-3.29-.18-.67,1.06-1.31,2.07-1.94,3.07,1.09-2.61,2.18-5.22,3.26-7.83Z"/>
  <path class="cls-1" d="m31.92,279.64c-4.13-.19-8.25-.38-12.38-.57h0c-.53-.13-1.05-.27-1.58-.4l.04.04c-.18-.13-.36-.26-.54-.38-.13-.07-.27-.1-.42-.09-.5-.35-1.01-.7-1.51-1.05v-.36c4.11.68,8.23,1.36,12.34,2.06,1.35.23,2.69.5,4.04.75h.01Z"/>
  <path class="cls-21" d="m16.01,1.95c2.25-.59,4.5-1.19,6.75-1.78-.23.29-.4.76-.68.84-2.35.67-4.73,1.28-7.09,1.9.2-.29.41-.58.61-.86.15,0,.28-.03.41-.1h0Z"/>
  <path class="cls-2" d="m2.1,258.98c1.92,1.2,1.4,3.08,1.34,4.84-.45-1.61-.89-3.22-1.34-4.84Z"/>
  <path class="cls-21" d="m165.02,93.12c-.49-.59-.98-1.17-1.48-1.76.49-.37.98-.73,1.47-1.1v2.85h.01Z"/>
  <path class="cls-21" d="m161.53,13.6c-.44-.85-.89-1.7-1.33-2.54.44.85.89,1.7,1.33,2.54Z"/>
  <path class="cls-2" d="m4,265.24c.45.83.9,1.66,1.35,2.49-.45-.83-.9-1.66-1.35-2.49Z"/>
  <path class="cls-2" d="m8.32,7.89c-.53.6-1.06,1.21-1.6,1.81.53-.6,1.06-1.21,1.6-1.81Z"/>
  <path class="cls-21" d="m156.84,6.83c-.5-.48-1-.96-1.51-1.44.5.48,1,.96,1.51,1.44Z"/>
  <path class="cls-21" d="m12.1,4.87c-.48.33-.97.66-1.45,1,.2-.22.4-.45.61-.67.28-.11.56-.22.85-.32h-.01Z"/>
  <path class="cls-21" d="m10.19,6.26c-.44.37-.88.73-1.32,1.1.44-.37.88-.73,1.32-1.1Z"/>
  <path class="cls-21" d="m159.31,9.7c-.36-.48-.71-.96-1.07-1.45.36.48.71.96,1.07,1.45Z"/>
  <path class="cls-2" d="m6.3,269.15c.34.48.68.97,1.02,1.45-.34-.48-.68-.97-1.02-1.45Z"/>
  <path class="cls-2" d="m5.33,267.71c.33.49.66.98.99,1.46-.33-.49-.66-.98-.99-1.46Z"/>
  <path class="cls-21" d="m160.07,10.7c-.13-.17-.26-.35-.39-.52.13.17.26.35.39.52Z"/>
  <path class="cls-26" d="m166.82,94.44c-.19-.25-.37-.5-.56-.75.18.25.37.5.56.75Z"/>
  <path class="cls-5" d="m13.12,9.7c.48-.44.96-.88,1.44-1.31.54-.33,1.07-.67,1.61-1,.14.04.25,0,.34-.1h.63c.41-.19.83-.39,1.24-.58h-.02c.78-.08,1.57-.1,2.34-.22,1.97-.33,3.93-1.01,5.89-1.01,38.21-.06,76.42-.05,114.64-.04,1.47,0,2.95.08,4.42.12,1.3.61,2.6,1.22,3.89,1.83.18.54.2,1.24.56,1.58,2.43,2.3,3.83,4.92,3.83,8.4-.04,50.95-.02,101.9-.03,152.85,0,4.88-.13,9.77-.19,14.65-3.46-5.96-7.96-10.79-14.77-13.33.74-.43,1.28-.76,1.84-1.07,9.33-5.16,13.62-14.72,11.13-25.01-1.33-5.53-4.66-9.74-9.15-13.1-.32-.21-.65-.42-.97-.63l.03.02c-.21-.14-.42-.28-.64-.41l.08.08c-.33-.2-.66-.4-.99-.6l.07.06c-.35-.17-.7-.34-1.05-.51l.07.06c-3.03-2.55-6.71-2.46-10.3-2.33-1.53.05-3.04.88-4.56,1.36l.06-.07c-.92.39-1.84.78-2.76,1.17l-.1-.02c-.32.16-.63.31-.95.47v-.05c-.29.19-.59.37-.89.56l-.03-.05c-.21.12-.42.25-.63.37l.06-.05c-.3.22-.61.43-.91.65l.03-.08-.64.44.06-.05c-.48.36-.96.72-1.44,1.08l.07-.09c-.2.17-.4.34-.6.51l.07-.07c-.19.18-.38.35-.57.53l.06-.06c-.18.18-.36.36-.54.55l.06-.06c-.18.18-.36.37-.54.55l.07-.07c-.18.19-.35.38-.53.57l.07-.08-.51.6.08-.07c-.13.2-.26.4-.39.6v.07c-.24.25-.47.5-.71.76l.04-.05c-.15.21-.3.42-.45.64l.09-.08c-.21.31-.43.63-.64.94l.04-.05c-.1.21-.2.41-.3.62v.11c-.17.29-.35.57-.53.86l-.1-.13.12.12c-.37.79-.75,1.58-1.12,2.37l.06-.06c-.12.34-.23.68-.35,1.02l.04.16c-.54,1.46-1.39,2.89-1.55,4.4-.37,3.54-.38,7.12,1.92,10.2l-.05-.05c.15.36.29.71.44,1.07l-.05-.06c.17.35.34.69.51,1.04l-.05-.06c.17.34.35.69.52,1.03l-.05-.06c.24.34.47.68.71,1.02,2.96,2.94,5.92,5.88,8.72,8.66-12.18,4.78-18.99,16.98-16.18,30.09,1.38,6.43,5.02,11.5,10.13,15.58.21.15.43.31.64.46v-.05c.29.22.57.44.86.67l-.05-.04.61.29.11.04c.27.21.54.41.81.62l-.04-.04c.34.4.61.97,1.04,1.18,6.64,3.18,13.46,3.72,20.43,1.18.4-.14.67-.61,1.01-.92l-.05.05c.35-.15.71-.3,1.06-.46l-.05.04c.34-.17.68-.34,1.03-.5l-.05.03.99-.55-.05.04c.55-.38,1.11-.77,1.66-1.15l.17-.11c.38-.24.75-.49,1.13-.73,2.73-3.35,5.45-6.7,8.18-10.06.02,14.36-.02,28.73.1,43.09.03,3.82-.83,7.31-2.74,10.55-3.3,5.58-7.78,9.82-14.57,10.01-13.25.38-26.51.44-39.76.48-24.16.07-48.32.04-72.48.01-1.83,0-3.7-.14-5.46-.56-1.41-.34-2.14,0-2.63,1.24-1.06-.68-2.13-1.36-3.19-2.04-.17-.17-.34-.33-.52-.49l.02.02c-.13-1.42.37-2.23,1.95-1.97.16.16.33.32.49.47.16.16.32.32.48.48.16.16.32.32.48.48.06.04.13.07.19.11l-.19-.11c-.16-.16-.32-.32-.48-.48-.16-.16-.32-.32-.48-.48l-.48-.49c-2.2-3.83-3.35-7.94-3.39-12.36-.51-64.35,1.03-128.71-.88-193.06-.4-13.48-.18-26.97,0-40.46.04-2.8,1.15-5.58,1.69-8.39.17-.88.08-1.81.11-2.72,0,0,0,.05,0,.04.17-.17.34-.35.51-.52l-.04.03c.18-.17.35-.34.53-.5l.05-.07Zm57.17,60.67c.15-.2.29-.39.44-.59l-.02-.02.71-.79-.04.05c.15-.21.29-.43.44-.64l-.09.07c.21-.32.41-.64.62-.96l-.05.06c.19-.33.38-.66.57-.99l-.04.05c.33-.65.66-1.29,1-1.94.65-2.73,1.79-5.45,1.87-8.19.24-8.91.1-17.83.1-26.74v-3.13c-.28,0-.56,0-.84.02-.51-1.96-1.02-3.93-1.53-5.89-.63-3.6-3.28-5.69-5.85-7.85-.2-.18-.41-.36-.61-.54l-.06.11-.12-.02c-.27-.18-.53-.36-.8-.54l.06-.11-.03.12c-.79-.37-1.58-.75-2.37-1.12l.07.06c-1.61-.53-3.21-1.48-4.83-1.51-9.47-.14-18.95-.19-28.42.03-2.25.05-4.48,1.25-6.72,1.92l.06-.04c-.79.38-1.59.75-2.38,1.13l.05-.04c-.29.2-.58.39-.87.59l-.07-.04c-.21.12-.42.24-.63.36l.07-.07c-.19.16-.39.32-.58.48l.03-.02-.91.66.07-.11c-.21.19-.41.38-.62.57-.73.76-1.45,1.52-2.18,2.27-.18.22-.35.44-.53.66l.06.05-.67.8.04-.04c-.28.52-.56,1.04-.85,1.55h0c-.17.33-.34.65-.51.96v-.12l.02.12c-.13.31-.27.62-.4.93l-.03.15-.53,1.3.03.04c-.41,1.12-1.17,2.23-1.18,3.35-.09,11.29-.08,22.58,0,33.87,0,1.03.79,2.06,1.22,3.09,1.67,2.73,3.35,5.47,5.02,8.2-.05.1-.1.2-.15.3.1-.07.2-.14.29-.2l.17.15c.23.24.45.47.68.71l-.04-.03c.19.17.38.34.57.5l-.06-.07c.5.34.99.68,1.49,1.02l-.05-.05c.52.28,1.05.56,1.57.84l.02-.03c.31.16.62.32.93.48l.1-.02c1.98.74,3.94,2.06,5.93,2.11,8.9.23,17.8.11,26.7.07.29,0,.58-.52.87-.8,5.26-.11,9.55-2.37,13.26-5.94.22-.21.43-.42.65-.63l-.12.06-.02-.04Zm-44.03,39.34l.1-.03c-.13.18-.27.36-.4.54l-.04.1c-.23.24-.47.48-.7.72l.04-.05c-.16.21-.31.41-.47.62l.09-.07c-.21.31-.42.63-.63.94l.03-.04c-.32.51-.65,1.01-.97,1.52l.05-.06c-.17.35-.33.7-.5,1.05l.05-.06c-.53,1.55-1.48,3.09-1.52,4.65-.17,6.46-.03,12.94-.12,19.4-.02,1.27-.58,2.53-.89,3.79-.63.67-1.27,1.35-1.9,2.02-.14,0-.33-.04-.4.03-.09.09-.12.28-.12.42,0,5.82,0,11.63,0,17.45,0,2.31.49,4.75-1.47,6.64-.16.29-.32.58-.48.87-.3.36-.6.73-.9,1.09-.14,0-.38-.03-.39.02-.08.21-.13.45-.13.67,0,12.81,0,25.62.02,38.44,0,.44.26.89.4,1.33v1.95l.15-.04-.14,1.93v1.02c.03.47.06.95.1,1.42.28,1.39.57,2.79.85,4.18.2.32.4.65.6.97l.91.65c.95.31,1.9.89,2.86.9,9.53.07,19.06.1,28.59-.02,1.25-.02,2.5-.97,3.75-1.48,0-.11.02-.22.04-.33.12-.03.25-.05.38-.06.35-.32.7-.63,1.05-.95.16-.75.47-1.5.47-2.25.03-14.23.03-28.46,0-42.69,0-.76-.26-1.52-.4-2.29l-.56-3.38c-.46-.65-.91-1.31-1.37-1.96-.19-.22-.39-.44-.58-.65-.15-1.1-.43-2.2-.43-3.31-.04-6.18,0-12.35-.06-18.53,0-.85-.5-1.69-.76-2.53-.54-.47-1.07-.95-1.61-1.42-.32-.06-.63-.12-.95-.18-.17-1.19-.48-2.37-.48-3.56-.04-10.49,0-20.97-.07-31.46,0-.82-.53-1.63-.81-2.45l-.17.03c-.24-2.16-.26-4.41-2.3-5.87l.03.03c-.34-.29-.68-.57-1.02-.86-2.33-1.51-4.36-.55-6.09,1.01-3.44,3.11-6.75,6.36-10.12,9.56-.18.21-.37.42-.55.63h-.05Zm39.97,11.38l-.04-.05c.19.49.38.99.57,1.48l-.06-.07c.2.49.39.99.59,1.48l-.07-.06c.38.94.76,1.88,1.13,2.81l-.07.1c.5,1.26.99,2.53,1.49,3.79l-.03.05c.12.35.24.71.36,1.06l-.05-.06c.15,2.2.24,4.4.46,6.59.22,2.17.56,4.33.84,6.5.07.14.1.3.1.46.15,3.11.35,6.21.45,9.32.2,6.39.35,12.78.52,19.17.12,3.63.19,7.26.4,10.89.04.73.62,1.44.94,2.16l.15-.05c-.05.33-.09.65-.14.98-.14.77-.42,1.53-.4,2.29.11,3.59.32,7.18.45,10.78.34,8.95.58,17.9,1.03,26.84.11,2.15.28,4.53,2.55,5.86.57.5,1.13,1,1.7,1.5.51.39,1.01.77,1.52,1.16.49.23.99.47,1.48.7l-.05-.03c2.2,1.61,5.73,1.39,7.68-.48l-.04.03c.8-.55,1.6-1.1,2.4-1.65.11-.1.22-.2.33-.3l1.59-1.98-.04.07c.34-.66.68-1.32,1.02-1.99l-.06.07c.38-.74,1.07-1.47,1.11-2.22.37-7.29.63-14.6.92-21.89.05-2.24.09-4.49.14-6.73.29-.96.74-1.91.83-2.89.24-2.77.46-5.55.46-8.32,0-3.79-.21-7.59-.34-11.38,0-.18,0-.35.01-.53.28-.73.77-1.45.82-2.19.23-3.57.42-7.14.48-10.71.03-1.96-.23-3.91-.36-5.87v-.97c.29-.64.76-1.27.85-1.94.16-1.26.04-2.55.13-3.82.53-6.79,1.08-13.58,1.63-20.37l-.1-.13c.39-.92.78-1.84,1.18-2.76l-.06.06c.64-1.64,1.28-3.27,1.92-4.91l-.06.05c.21-.49.41-.97.62-1.46l-.06.07c.2-.49.39-.98.59-1.47l-.03.05c.52-1.44,1.05-2.88,1.57-4.33,1.79-4.84,3.64-9.66,5.37-14.53,1.87-5.27.99-8.52-3.13-12.22-12.12-10.88-31-11.82-43.98-2.06-3.24,2.44-6.43,5.12-7.15,9.54-.27.19-.81.47-.78.56,1.27,3.67,2.58,7.33,3.89,10.99l-.04-.06c.18.5.37.99.55,1.49l-.05-.06c.99,2.59,1.98,5.17,2.97,7.76l-.06-.06c.37.96.75,1.91,1.12,2.87l-.06-.02c.13.37.25.73.38,1.1l.02-.06Z"/>
  <path class="cls-14" d="m153.71,184.86c.07-4.88.19-9.77.19-14.65,0-50.95-.01-101.9.03-152.85,0-3.48-1.41-6.11-3.83-8.4-.36-.34-.38-1.05-.56-1.58,4.59,2.42,7.31,6.39,9.21,11.05.28,1.77.56,3.55.85,5.32v1.94c-.14.93-.39,1.85-.39,2.78-.02,21.68-.02,43.35-.02,65.03,0,53.1,0,106.19.02,159.29,0,1.09.25,2.18.39,3.27-.44,2.1-.88,4.2-1.32,6.29-.19.44-.38.89-.56,1.33-.12.2-.25.39-.37.59-1.93,3.37-4.4,6.27-7.87,8.09-1.98,1.04-4.15,1.69-6.24,2.51-.47-.01-.94-.03-1.42-.04-.85-.14-1.69-.39-2.54-.39-15.4-.02-30.8.18-46.19-.07-24.58-.39-49.18,1.21-73.74-.92-.49-.14-.97-.28-1.46-.42-.5-.3-1-.6-1.5-.89h-.08c.49-1.22,1.22-1.57,2.63-1.23,1.77.43,3.64.56,5.46.56,24.16.03,48.32.06,72.48-.01,13.26-.04,26.51-.1,39.76-.48,6.78-.19,11.27-4.43,14.57-10.01,1.91-3.24,2.77-6.73,2.74-10.55-.11-14.36-.08-28.73-.1-43.09v.07c.17-.4.33-.81.5-1.21.61-2.34,1.72-4.67,1.71-7-.03-3.92-.79-7.84-1.24-11.76-.17-.57-.34-1.13-.5-1.7v.04c-.17-.33-.34-.65-.5-.98l-.09.08h-.02Z"/>
  <path class="cls-7" d="m14.56,267.66c-1.58-.27-2.07.54-1.95,1.97-1.79-2.75-3.57-5.5-5.36-8.25-.3-1.28-.6-2.56-.9-3.84-.02-.33-.03-.65-.05-.98.05-.16.1-.32.15-.48.14-.85.39-1.69.39-2.54.02-76.39.02-152.78,0-229.17,0-.85-.25-1.7-.39-2.54-.05-.16-.09-.33-.14-.49.05-.31.09-.62.14-.94l.82-2.92c.07-.13.1-.27.09-.42l.96-1.96.37-.51c.09-.12.13-.25.13-.4.36-.49.72-.98,1.08-1.48.44-.49.88-.97,1.32-1.46l.5-.5c.13-.02.27-.05.4-.07-.03.91.06,1.84-.11,2.72-.54,2.81-1.66,5.59-1.69,8.39-.17,13.48-.39,26.98,0,40.46,1.91,64.35.37,128.71.88,193.06.04,4.42,1.19,8.53,3.39,12.36l-.02.02v-.03Z"/>
  <path class="cls-21" d="m159.59,25.68v-1.94c-.28-1.77-.56-3.55-.85-5.32.43.77,1.11,1.51,1.25,2.33.34,2.04.61,4.12.61,6.19.03,75.34.04,150.68-.02,226.02,0,2.6-.66,5.21-1.15,7.79-.11.58-.77,1.06-1.17,1.59.44-2.1.88-4.2,1.32-6.29.03-.96.08-1.92.08-2.89V89.29c0-21.21-.04-42.41-.06-63.62h0Z"/>
  <path class="cls-1" d="m6.45,256.07c-.05.16-.1.32-.15.48-.3-.89-.85-1.77-.85-2.66-.05-27.72-.04-55.43-.04-83.15,0-48.84,0-97.69.04-146.53,0-.96.56-1.93.87-2.89.05.16.09.33.14.49-.03.72-.08,1.44-.08,2.16v173.05c0,19.68.04,39.36.07,59.04h0Z"/>
  <path class="cls-1" d="m164.54,119.65c-.02,28.26-.04,56.52-.05,84.78,0,16.78,0,33.56-.02,50.34,0,1.09-.25,2.19-.38,3.28-.19-.82-.54-1.64-.54-2.46-.03-44.46-.03-88.91.02-133.37,0-.85.63-1.71.97-2.56h0Z"/>
  <path class="cls-1" d="m141.8,274.81c.47.01.94.03,1.42.04.08.02.17.01.23.06.11.08.19.19.28.29-.98.21-1.97.61-2.95.61-38.13.03-76.26.03-114.39-.01-.73,0-1.45-.56-2.18-.85,23.37-.01,46.75-.01,70.12-.04,15.82-.02,31.65-.07,47.47-.1h0Z"/>
  <path class="cls-10" d="m145.65,5.54c-1.47-.04-2.95-.12-4.42-.12-38.21,0-76.42-.02-114.64.04-1.96,0-3.92.69-5.89,1.01-.77.13-1.56.14-2.34.21,1-.4,2-.79,3-1.19.31-.05.61-.1.92-.15.48-.13.97-.27,1.45-.4.32-.03.64-.05.96-.08h1.35c3.25-.08,6.51-.17,9.76-.25,1.59,0,3.19-.02,4.78-.03h62.73c.63,0,1.26,0,1.89,0h2.45c.47,0,.93,0,1.4,0h25.06c2.45.09,4.91.19,7.36.28.94.05,1.88.1,2.82.16.46.18.92.36,1.38.54l-.02-.02Z"/>
  <path class="cls-24" d="m141.8,274.81c-15.82.04-31.65.09-47.47.1-23.37.02-46.75.03-70.12.04-.32-.02-.64-.04-.96-.06-.64-.14-1.28-.28-1.93-.42-.3-.08-.6-.15-.9-.23-.34-.09-.69-.18-1.03-.27-.17-.17-.35-.34-.52-.5.16-.02.31-.03.47-.02,24.56,2.13,49.16.53,73.74.92,15.39.25,30.79.04,46.19.07.85,0,1.69.25,2.54.39v-.02Z"/>
  <path class="cls-1" d="m72.39,4.56h-31.83c-1.59,0-3.19.02-4.78.03-3.25.08-6.5.17-9.76.25h-1.35c.88-.3,1.77-.86,2.65-.86,21.75-.05,43.5-.04,65.25-.04,16.05,0,32.1-.02,48.15.05,1.17,0,2.35.65,3.52,1-.94-.05-1.88-.1-2.82-.16-2.45-.09-4.91-.19-7.36-.28h-26.46c-.82,0-1.63,0-2.45,0-.63,0-1.26,0-1.89,0h-30.9.03Z"/>
  <path class="cls-1" d="m148.17,277.8c-2.54.64-5.05,1.46-7.63,1.84-1.93.29-3.95.02-5.93,0,.4-.3.78-.81,1.21-.85,4.11-.37,8.23-.67,12.35-.99Z"/>
  <path class="cls-1" d="m21.36,5.49c-1,.4-2,.79-3,1.19h.02c-.41.2-.83.4-1.24.59h-.63c1.15-1.87,2.87-2.19,4.86-1.79h0Z"/>
  <path class="cls-1" d="m6.35,257.53c.3,1.28.6,2.56.9,3.84-1.38-1.03-1.78-2.29-.9-3.84Z"/>
  <path class="cls-1" d="m7.27,17.46l-.82,2.92c-.87-1.3-.46-2.23.82-2.92Z"/>
  <path class="cls-1" d="m163.45,261.39c-.3.8-.59,1.61-.89,2.41.3-.8.59-1.61.89-2.41Z"/>
  <path class="cls-1" d="m8.31,15.08c-.32.65-.64,1.31-.96,1.96,0-.18-.02-.36-.02-.54.16-.64.32-1.29.49-1.93h.48c0,.17,0,.34.02.51h0Z"/>
  <path class="cls-2" d="m15.54,277.19c-.7-.42-1.41-.85-2.11-1.28.71.31,1.41.61,2.12.92v.36h0Z"/>
  <path class="cls-1" d="m163.95,258.98c-.1.5-.21.99-.31,1.49.1-.5.21-.99.31-1.49Z"/>
  <path class="cls-1" d="m23.74,4.94c-.48.13-.97.27-1.45.4.48-.13.97-.27,1.45-.4Z"/>
  <path class="cls-1" d="m21.32,274.47c.64.14,1.28.28,1.93.42-.64-.14-1.28-.28-1.93-.42Z"/>
  <path class="cls-1" d="m16.16,7.38c-.54.33-1.07.67-1.61,1,.54-.33,1.07-.67,1.61-1Z"/>
  <path class="cls-2" d="m9.89,12.69c-.36.49-.72.98-1.08,1.48.36-.49.72-.98,1.08-1.48Z"/>
  <path class="cls-2" d="m13.12,275.8c-.35-.25-.69-.5-1.04-.75.86-.62.89-.6,1.04.75Z"/>
  <path class="cls-1" d="m19.39,273.97c.34.09.69.18,1.03.27-.34-.09-.69-.18-1.03-.27Z"/>
  <path class="cls-5" d="m16.38,272.13c.5.3,1,.6,1.5.89l-.05.05c-.28-.04-.57-.08-.85-.12-.2-.28-.4-.55-.6-.83h0Z"/>
  <path class="cls-5" d="m19.34,273.44c-.16,0-.31,0-.47.02-.3-.01-.6-.02-.9-.03-.07-.11-.12-.22-.14-.35l.05-.05c.49.14.97.28,1.46.42h0Z"/>
  <path class="cls-7" d="m13.12,9.7c-.18.17-.35.34-.53.5.18-.17.35-.34.53-.5Z"/>
  <path class="cls-7" d="m12.59,269.61c.17.16.34.33.52.49-.17-.16-.34-.33-.52-.49Z"/>
  <path class="cls-1" d="m17.83,273.07c.02.13.07.25.14.35-.33-.16-.66-.31-.99-.47.28.04.57.08.85.12Z"/>
  <path class="cls-2" d="m11.71,10.73l-.5.5.5-.5Z"/>
  <path class="cls-7" d="m12.63,10.17c-.17.17-.34.35-.51.52.17-.17.34-.35.51-.52Z"/>
  <path class="cls-21" d="m149.07,1.62c.18.13.37.26.55.39-.18-.13-.37-.26-.55-.39Z"/>
  <path class="cls-21" d="m157.33,264.26c.12-.2.25-.39.37-.59-.12.2-.25.39-.37.59Z"/>
  <path class="cls-2" d="m8.31,15.08c0-.17,0-.34-.02-.51h.39c-.12.17-.25.34-.37.51Z"/>
  <path class="cls-17" d="m97.1,199.64c-.05,2.24-.09,4.49-.14,6.73-.15,1.82-.29,3.65-.44,5.47-.53,6.22-1.06,12.43-1.59,18.65l.06-.07c-.34.66-.68,1.32-1.02,1.99,0,0,.04-.07.04-.06-.49.52-.97,1.04-1.46,1.56l-1.28,1.13-.47.34c-.18.12-.36.25-.54.37-.19.18-.37.35-.56.53l.04-.03c-.45.09-.91.18-1.36.27l-9.27-1.63c-.57-.5-1.13-1-1.7-1.5-.24-.58-.48-1.17-.72-1.75-.12-.2-.23-.41-.35-.61-.07-.31-.14-.62-.2-.92.15-.18.43-.37.42-.54-.24-5.47-.48-10.93-.81-16.39-.04-.65-.57-1.28-.87-1.92,0-.48-.03-.97-.04-1.45.11-3.21.22-6.41.29-9.62,0-.16-.47-.33-.72-.5,0-.32,0-.65,0-.97.09-3.85.2-7.7.25-11.55,0-.17-.47-.34-.72-.51l-.15.05c.04-.33.08-.66.12-1,.1-3.05.22-6.09.28-9.14,0-.16-.47-.33-.73-.5-.05-.31-.09-.62-.14-.93.18-.42.54-.84.52-1.26-.29-8.91-.62-17.83-.99-26.74,0-.33-.55-.64-.84-.96-.05-.31-.09-.62-.14-.93.15-.18.43-.37.42-.54-.14-3.52-.3-7.04-.5-10.55,0-.18-.46-.34-.71-.51l-1-2.02.05.06c-.12-.35-.24-.71-.36-1.06l.03-.05c-.5-1.26-.99-2.53-1.49-3.79l.07-.1c-.38-.94-.76-1.88-1.13-2.81l.07.06c-.2-.49-.39-.99-.59-1.48l.06.07c-.19-.49-.38-.99-.57-1.48l.04.05c-.13-.37-.25-.73-.38-1.1,0,0,.06.02.05.02-.37-.96-.75-1.91-1.12-2.87l.06.06c-.99-2.59-1.98-5.17-2.97-7.76l.05.06c-.18-.5-.37-.99-.55-1.49l.04.06c-.26-.98-.52-1.97-.78-2.95-.78-2.87-1.55-5.73-2.33-8.6.72-4.42,3.9-7.1,7.15-9.54,12.97-9.76,31.86-8.82,43.98,2.06,4.12,3.7,5,6.95,3.13,12.22-1.73,4.87-3.57,9.69-5.37,14.53-.52,1.44-1.05,2.88-1.57,4.33l.03-.05c-.2.49-.39.98-.59,1.47l.06-.07c-.21.49-.41.97-.62,1.46l.06-.05c-.64,1.64-1.28,3.27-1.92,4.91l.06-.06c-.39.92-.78,1.84-1.18,2.76l.1.13c-.29.8-.73,1.58-.83,2.41-.31,2.69-.52,5.38-.71,8.08-.38,5.21-.71,10.43-1.07,15.64v.97c-.31,6.26-.62,12.52-.94,18.78,0,.18,0,.35-.01.53-.32,7.53-.63,15.06-.95,22.59h-.03Zm-32.16-106.72s.1.07.15.11c-.05-.04-.09-.08-.14-.12-.16.18-.32.37-.47.55l.07-.04c-.16.21-.32.42-.48.63-.28.41-.55.83-.83,1.24-1.6,2.87.38,5.15,1.24,7.61l-.06.07c.55,1.41,1.1,2.82,1.65,4.23l-.05-.06c1.4,3.87,2.8,7.75,4.21,11.62l-.05.2c.98,2.67,1.97,5.33,2.95,8l-.06.18c.49,1.41.99,2.82,1.45,4.15h3.1c-.25-1.76-.47-3.33-.68-4.91-.89-6.47-1.85-12.93-2.63-19.42-.37-3.05.86-3.8,3.85-2.69l-.04-.05c.03.31.07.62.1.93-.02.32-.03.65-.05.97.02.32.05.63.07.95.15.81.31,1.63.46,2.44,0,.63.02,1.27.03,1.9.13.97.26,1.94.39,2.91.03.32.06.63.09.95.12.49.24.98.37,1.47.04.96.08,1.91.12,2.87.12.33.24.66.36.99.04.8.08,1.59.12,2.39.12.33.24.66.37.99.03.78.05,1.57.08,2.35l.39.53c.05.31.1.62.14.94-1.26,2.92-.38,4.37,2.66,4.37,1.43,0,2.87.04,4.3,0,2.13-.07,2.44-.65,1.64-2.89.03-.32.05-.64.08-.96,1.6-2.21,1.82-4.67,1.31-7.26l.11-.94c.4-1.01,1.01-2,1.16-3.05.21-1.55.1-3.14.12-4.71.05-.31.1-.61.16-.92.3-.31.82-.58.86-.92.25-1.93.38-3.88.55-5.82.98-.02,1.97-.03,2.95-.05l-.02-.02c.12.18.25.36.37.54,0,.32,0,.65.01.97-.41.77-1.06,1.5-1.18,2.31-.36,2.39-.55,4.81-.73,7.23-.06.85.11,1.72.18,2.57l-.19,1.39c-1.33.46-1.1,1.18-.31,1.97-.06.47-.11.93-.17,1.4-.28,1.61-.57,3.23-.85,4.84-.04.31-.08.63-.12.94-.28.88-.71,1.75-.72,2.63,0,.24,1.25.69,1.94.71,1.85.06,3.39-2.6,3.17-5.27.82-2.55,1.63-5.09,2.45-7.64.22-.48.43-.97.65-1.45h-.1c.2-.46.4-.94.6-1.41l-.11-.03c.48-1.14.95-2.29,1.43-3.43l-.05.05c.19-.49.38-.99.57-1.48l-.06.06c.19-.5.38-.99.56-1.49l-.06.04c.36-.82.73-1.63,1.09-2.45l.2-.56,1.56-4.29-.03.03c.19-.49.37-.98.56-1.48l-.05.06c.19-.5.38-.99.57-1.49l-.05.06c.88-1.63,1.64-3.27.44-5.08-.65-.6-1.3-1.21-1.95-1.81l.02.02c.03-.16,0-.32-.08-.46-.9-.82-1.81-1.63-2.71-2.45-.52-.35-1.04-.69-1.56-1.04l.05.05c-.94-.54-1.87-1.09-2.81-1.63l-.04.03c-.76-.34-1.52-.69-2.29-1.03l-.18.06-7.8-1.75.04.03c-4.54-1.15-8.88-.24-13.17,1.27l-.13-.09c-.92.39-1.84.79-2.75,1.18l.06-.05c-.35.17-.7.34-1.05.51l.06-.05c-.33.19-.67.38-1,.57l.05-.05-2.46,1.5.05-.05c-.48.35-.97.7-1.45,1.05l.04-.03c-.2.16-.39.33-.59.49l.06-.07c-.54.44-1.08.88-1.62,1.32l.14.09-.15-.06c-.16.17-.32.33-.47.5h.02Zm14.68,43.14h-4.18c.63,8.62,1.25,16.98,1.89,25.65,1.47-.23,2.63-.41,3.78-.58,1.76,0,3.53.08,5.29-.05,1.49-.11,3.18-.12,4.37-.85.66-.4.47-2.19.65-3.35.23-1.49.49-2.98.67-4.48.53-4.67,1.01-9.34,1.55-14.01.2-1.73-.34-2.45-2.22-2.39-3.92.14-7.85.05-11.78.06h-.02Zm3.39,96.03c4.17,1.09,6.24-.41,6.28-4.55.02-2.49.02-4.97.08-7.46.1-4.45.31-8.91.34-13.36.04-7.31-.03-14.62-.04-21.93v-18.34h-8.12c-3.9-.04-3.94-.03-3.83,3.7.08,2.79.39,5.58.44,8.37.22,11.44.35,22.88.56,34.33.09,4.72.27,9.43.47,14.14.12,2.79,1.36,4.37,3.83,5.1h0Z"/>
  <path class="cls-15" d="m154.81,187.41c.45,3.92,1.2,7.83,1.24,11.76.02,2.33-1.1,4.67-1.71,7-.17.41-.33.81-.5,1.21v-.07c-2.73,3.35-5.45,6.7-8.18,10.06-.38.24-.75.49-1.13.73l-.17.11c-.55.38-1.11.77-1.66,1.15l.05-.04c-.33.18-.66.37-.99.55l.05-.03c-.34.17-.68.34-1.03.5l.05-.04c-.35.15-.71.3-1.06.46l.05-.05c-7.7,2.7-15.2,2.36-22.48-1.44l.04.04c-.27-.21-.54-.41-.81-.62l-.11-.04c-.21-.1-.41-.19-.61-.29l.05.04c-.28-.22-.56-.44-.84-.67v.05c-.22-.15-.44-.31-.65-.46-5.1-4.07-8.75-9.15-10.13-15.58-2.81-13.11,4-25.31,16.18-30.09-2.8-2.78-5.76-5.72-8.72-8.66-.24-.34-.47-.68-.71-1.02l.05.06c-.17-.34-.35-.69-.52-1.03l.05.06c-.17-.35-.34-.69-.51-1.04l.05.06c-.15-.36-.29-.71-.44-1.07l.05.05c-1.59-4.83-1.81-9.69-.37-14.59,0,0-.04-.16-.05-.16.11-.34.23-.68.35-1.02l-.06.06c.37-.79.75-1.58,1.12-2.37l-.12-.12.1.13c.18-.29.36-.57.54-.86v-.11c.1-.21.2-.41.3-.62l-.04.05c.21-.31.43-.63.64-.94,0,0-.09.08-.09.07.15-.21.3-.42.45-.64l-.04.05c.24-.25.47-.5.71-.76v-.07c.13-.2.26-.4.39-.6l-.08.07c.17-.2.34-.4.51-.6,0,0-.07.08-.07.07.18-.19.35-.38.53-.57l-.07.07c.18-.18.36-.37.54-.55l-.06.06c.18-.18.36-.36.54-.54l-.06.06c.19-.18.38-.35.57-.53l-.07.07c.2-.17.4-.34.6-.51l-.07.09c.48-.36.96-.72,1.44-1.08l-.06.05c.21-.15.42-.29.63-.44l-.03.08c.3-.22.61-.43.91-.65l-.06.05c.21-.12.42-.25.63-.37l.03.05c.3-.19.6-.37.9-.56v.05c.31-.16.62-.31.94-.47l.1.02c.92-.39,1.84-.78,2.76-1.16,0,0-.06.07-.06.06,5.05-1.16,10.01-.93,14.86.97l-.07-.06c.35.17.7.34,1.05.51l-.07-.06c.33.2.66.4.99.6l-.08-.08c.21.14.42.28.64.41l-.03-.02c.32.21.65.42.97.63,4.48,3.37,7.81,7.57,9.15,13.1,2.48,10.29-1.81,19.85-11.13,25.01-.55.31-1.1.63-1.84,1.07,6.81,2.54,11.31,7.36,14.77,13.33l.09-.08c.17.33.34.65.51.98v-.04c.17.57.34,1.13.5,1.7l-.03.06Zm-15.2-48.12c-.21-.15-.43-.29-.64-.44l.05.04-1.76-1.19h-.09c-.32-.16-.65-.31-.97-.46v.06c-3.83-1.75-7.65-1.67-11.45.09-.79.38-1.57.75-2.36,1.13-.16,0-.25.07-.27.23-.22.17-.44.35-.66.52-.34.24-.67.48-1.01.71-.1.12-.21.24-.31.36l-.06.06c-.19,0-.3.11-.33.29l-.78.9-.06.07c-.1.2-.21.39-.31.59l.02-.02c-4.27,5.32-4.21,12.57.14,18.59,0,.13.07.21.2.22.23.22.45.44.68.66.13.13.26.26.39.39.19.18.38.36.57.53l-.04-.03.81.69.05.03c.46.31.92.62,1.37.93l.08.03c4.66,2.71,9.43,2.8,14.28.55l.2-.1c.27-.15.53-.29.8-.44l.09-.05c.73-.56,1.45-1.11,2.18-1.67.23-.2.45-.39.68-.59.09-.02.15-.08.17-.17l1.2-1.59-.04.05c.32-.51.65-1.01.97-1.52l-.04.04c.19-.34.37-.67.56-1.01l-.05.06c.23-.45.46-.9.68-1.35l-.08-.09c2.08-6.49.43-12.93-4.22-16.76l-.12-.08c-.19-.12-.38-.24-.57-.36l.06.07v.03Zm-21.6,71.63c.21.17.41.33.62.5,4.28,3.42,9.27,4.34,14.48,3.52,8.06-1.27,14.35-7.69,15.39-15.62,1.13-8.63-2.5-16.61-10.48-20.36-5.87-2.76-11.82-2.99-17.41.99-.43.15-.9.21-1.27.45-10.04,6.37-11.36,21.34-2.61,29.46l-.02-.02c.44.39.88.77,1.33,1.16l-.02-.08h-.01Z"/>
  <path class="cls-17" d="m26.8,109.08c3.37-3.19,6.68-6.45,10.12-9.56,1.73-1.56,3.76-2.52,6.09-1.01.34.29.68.57,1.02.86l-.03-.03c.77,1.96,1.53,3.91,2.3,5.87l.17-.03c-.05,1.61-.1,3.22-.15,4.83v2.39c.04.48.08.96.11,1.44-.05.17-.09.34-.14.51-.13.52-.38,1.05-.38,1.57-.02,8.21-.03,16.42,0,24.63,0,.58.33,1.16.51,1.74.11,0,.23.03.34.04l1.07.32c.32.06.63.12.95.18.32,1.76.88,3.52.92,5.29.11,6.23.09,12.47.02,18.71-.02,1.87.61,2.72,2.51,2.45.46.65.91,1.31,1.37,1.96-.16.91-.46,1.82-.46,2.74-.03,13.68,0,27.35-.04,41.03,0,2.62-.29,5.24-.44,7.86-.02.11-.03.22-.04.33-.3.06-.6.12-.91.18-.33.11-.66.22-1,.33-.33,0-.65.02-.98.02-.84-.14-1.68-.41-2.52-.41-8.65-.03-17.3-.02-25.95-.02-1.28,0-2.57.05-3.85.07l-.9-.21c-.2-.32-.4-.65-.6-.97-.28-1.39-.57-2.79-.85-4.18-.03-.47-.06-.95-.1-1.42v-1.02c.05-.64.09-1.29.14-1.93.29-.64.84-1.28.85-1.93.05-11.72.05-23.43,0-35.15,0-.65-.56-1.29-.85-1.94v-.97c.29-1.15.58-2.31.87-3.46.16-.29.32-.58.48-.87.13-.03.26-.04.39-.04.34-.16.68-.32,1.02-.48.18-.82.51-1.63.52-2.45.06-7.19.06-14.39.08-21.59.63-.67,1.27-1.35,1.9-2.02,1.32-.1,1.6-.84,1.57-2.09-.08-3.67-.12-7.35.03-11.02.21-4.92.61-9.83.93-14.74,0,0-.05.06-.05.05.17-.35.33-.7.5-1.05l-.05.06c.32-.51.65-1.01.97-1.52l-.03.04c.21-.31.42-.63.63-.94l-.09.07c.16-.21.31-.41.47-.62l-.04.05c.23-.24.47-.48.7-.72l.04-.1c.13-.18.27-.36.4-.54l-.1.03c.18-.21.37-.42.55-.63h.01Zm3.1,3.32l.03-.08c-2.34,2.63-4.29,5.41-3.67,9.22v20.72h15.44c0-6.4,0-12.7,0-18.99-.02-6.23-.06-12.47-.1-18.7,0-1.36-.33-2.33-1.96-1.32-.2.14-.39.28-.59.43l-.06-.06c-2.84,2.69-5.68,5.38-8.52,8.07-.19.24-.37.48-.56.72h0Zm-7.03,55.51c.17.13.34.38.51.38,5.56-.03,11.12-.08,16.69-.13h5.7v-20.98h-22.9v20.73Zm-2.21,37.48c-.25.36-.5.71-.75,1.07v12.91h4.23c6.9.02,13.79-.02,20.69.11,2.02.04,2.57-.59,2.56-2.58-.08-13.47-.04-26.95-.04-40.42,0-3.83-1.15-4.79-4.99-4.15-.39.07-.78.24-1.16.23-5.84-.09-11.68-.21-17.51-.32-.92,0-1.85,0-2.77.02-.35.57-1,1.15-1,1.72-.06,9.43-.06,18.86,0,28.3,0,.59.51,1.19.78,1.78,0,.13,0,.27.02.4-.04.05-.13.11-.12.16.02.12.07.24.11.36-.03.13-.03.26-.03.39l-.02.02Z"/>
  <path class="cls-17" d="m15.79,17.01c.73-.76,1.45-1.52,2.18-2.27.21-.19.41-.38.62-.57l-.07.11c.3-.22.61-.44.91-.65l-.03.02c.19-.16.39-.32.58-.48l-.07.07c.21-.12.42-.24.63-.36l.07.04c.29-.2.58-.39.87-.59l-.05.04c.79-.38,1.59-.75,2.38-1.13l-.06.04c3.3-.42,6.6-1.07,9.91-1.21,6.3-.26,12.62-.37,18.92-.26,3.72.06,7.42.67,11.13,1.03l-.07-.06c.79.37,1.58.75,2.37,1.12l.03-.12-.06.11c.27.18.53.36.8.54l.12.02.06-.11c.2.18.41.36.61.54,2.57,2.16,5.22,4.25,5.85,7.85.3,2.04.85,4.07.87,6.11.09,10.47.04,20.94.05,31.41,0,1.04.06,2.07.09,3.11-.05.31-.11.62-.16.94-.41,1.09-.81,2.18-1.22,3.27-.07.35-.15.7-.22,1.04l.04-.05c-.19.33-.38.66-.57.99l.05-.06c-.21.32-.41.64-.62.96l.09-.07c-.15.21-.29.43-.44.64l.04-.05c-.24.26-.47.53-.71.79,0,0,.02.02.03.02-.15.2-.29.39-.44.59l.12-.06c-.22.21-.43.42-.65.63-3.71,3.57-8,5.84-13.26,5.94-7.67.09-15.34.36-23,.19-3.51-.08-7-1.02-10.5-1.57l-.1.02c-.31-.16-.62-.32-.93-.48l-.02.03c-.52-.28-1.05-.56-1.57-.84l.05.05c-.5-.34-.99-.68-1.49-1.02l.06.07c-.19-.17-.38-.34-.57-.5l.04.03c-.23-.24-.45-.47-.68-.71l-.17-.15-.14-.09c-1.67-2.73-3.35-5.47-5.02-8.2-.27-2.12-.75-4.24-.77-6.37-.09-9.1-.09-18.21,0-27.32.02-2.21.47-4.42.73-6.62l-.03-.04c.18-.44.36-.87.53-1.3l.03-.15c.13-.31.27-.62.4-.93l-.02-.12v.12c.17-.32.34-.63.51-.95h0c.28-.53.56-1.05.85-1.56l-.04.04c.22-.27.45-.54.67-.8l-.06-.05c.18-.22.35-.44.53-.66h0Zm49.11.29c-.21-.15-.43-.3-.64-.44l.07.05c-.28-.22-.57-.44-.85-.67l-.11.06c-2.25-.65-4.49-1.82-6.75-1.86-8.38-.13-16.77.12-25.16.22h-1.48c-.95.15-1.91.3-2.86.46-5.85,1.47-9.79,5.77-10.54,11.49-.08,5.34-.24,10.69-.23,16.03,0,6.06.16,12.12.25,18.18,1.75,7.47,6.79,11.56,14.29,11.53,7.69-.03,15.39-.18,23.08-.15,4.9.02,9.22-1.24,12.37-5.15,1.29-1.59,2.17-3.5,3.24-5.27.47-1.25,1.32-2.49,1.33-3.74.11-10.15.08-20.3.03-30.45,0-.64-.55-1.28-.84-1.92-.04-.33-.08-.65-.13-.98-.29-.81-.59-1.61-.88-2.42-.12-.07-.15-.17-.1-.29-.31-.55-.63-1.1-.94-1.65-.95-.96-1.9-1.91-2.85-2.87-.04-.13-.13-.21-.27-.24l-.03.06v.02Z"/>
  <path class="cls-21" d="m52.67,222.86c.15-2.62.43-5.24.44-7.86.04-13.68,0-27.35.04-41.03,0-.91.3-1.82.46-2.74.19,1.13.37,2.26.56,3.38-.02.96-.07,1.92-.07,2.88-.02,14.59-.03,29.17-.05,43.76-.34.51-.67,1.02-1.01,1.54-.13.02-.25.04-.38.06h.01Z"/>
  <path class="cls-1" d="m15.12,174.62c.3.65.85,1.29.85,1.94.05,11.72.05,23.43,0,35.15,0,.64-.55,1.29-.85,1.93l-.15.04v-1.95c.03-1.28.07-2.57.07-3.85.03-11.09.05-22.17.07-33.26h0Z"/>
  <path class="cls-23" d="m49.75,223.73c.33,0,.65-.02.98-.02.33-.11.66-.22,1-.33.3-.06.6-.12.91-.18-1.25.52-2.49,1.47-3.75,1.48-9.53.12-19.06.09-28.59.02-.95,0-1.9-.58-2.86-.9l.07-.07h32.24,0Z"/>
  <path class="cls-23" d="m74.85,209.8c0,.48.03.97.04,1.45.42,6.28.84,12.57,1.26,18.85.07.31.14.62.2.92.12.2.23.41.35.61.24.58.48,1.17.72,1.75-2.26-1.33-2.44-3.71-2.55-5.86-.45-8.94-.69-17.89-1.03-26.84-.13-3.59-.35-7.18-.45-10.78-.02-.76.26-1.53.4-2.29.2,3.7.41,7.39.61,11.09,0,.32,0,.65,0,.97.15,3.37.29,6.75.44,10.12h0Z"/>
  <path class="cls-10" d="m23,75.51c3.5.55,6.99,1.5,10.5,1.57,7.66.17,15.34-.1,23-.19-.29.28-.58.79-.87.8-8.9.04-17.81.16-26.7-.07-1.99-.05-3.96-1.37-5.93-2.11h0Z"/>
  <path class="cls-21" d="m52.24,169.28c-1.9.27-2.54-.58-2.51-2.45.07-6.23.1-12.47-.02-18.71-.03-1.77-.6-3.52-.92-5.29.54.47,1.07.95,1.61,1.42.07,7.37.11,14.73.25,22.1,0,.76.65,1.51,1,2.27.19.22.39.44.58.65h0Z"/>
  <path class="cls-10" d="m63.71,10.84c-3.71-.36-7.42-.96-11.13-1.03-6.31-.11-12.62,0-18.92.26-3.31.14-6.61.79-9.91,1.21,2.24-.67,4.47-1.86,6.72-1.92,9.47-.22,18.95-.17,28.42-.03,1.62.02,3.22.98,4.83,1.51h0Z"/>
  <path class="cls-7" d="m46.33,110.02c.05-1.61.1-3.22.15-4.83.28.82.81,1.63.81,2.45.06,10.49.03,20.97.07,31.46,0,1.19.31,2.37.48,3.56-.36-.11-.71-.21-1.07-.32,0-.33-.02-.65-.03-.98v-12.56c.12-.15.12-.3,0-.45,0-3.7-.03-7.41-.04-11.11,0-.15,0-.31-.02-.46,0-.34-.02-.69-.03-1.03-.07-.63-.14-1.26-.21-1.9-.04-.48-.08-.96-.11-1.44v-2.39h0Z"/>
  <path class="cls-10" d="m54.05,221.26c.02-14.59.03-29.17.05-43.76,0-.96.05-1.92.07-2.88.14.76.39,1.52.4,2.29.02,14.23.03,28.46,0,42.69,0,.75-.3,1.5-.47,2.25-.02-.2-.03-.39-.05-.59Z"/>
  <path class="cls-1" d="m74.43,61.36c-.03-1.04-.09-2.07-.09-3.11,0-10.47.04-20.94-.05-31.41-.02-2.04-.57-4.08-.87-6.11.51,1.96,1.02,3.93,1.53,5.89-.07.15-.07.31,0,.46v29.89c0,.49-.02.99-.03,1.48,0,0-.49,2.91-.49,2.91Z"/>
  <path class="cls-10" d="m22.91,114.9c-.32,4.91-.73,9.82-.93,14.74-.15,3.67-.11,7.35-.03,11.02.03,1.25-.25,1.99-1.57,2.09.31-1.26.88-2.52.89-3.79.09-6.47-.06-12.94.12-19.4.04-1.56.99-3.1,1.52-4.65h0Z"/>
  <path class="cls-10" d="m74.95,56.97v-.93c.12-.53.34-1.07.34-1.6.02-8.59.02-17.17,0-25.76,0-.53-.23-1.06-.35-1.6-.07-.15-.07-.31,0-.46.28,0,.56,0,.84-.02v3.13c0,8.91.14,17.83-.1,26.74-.07,2.75-1.22,5.46-1.87,8.19l-.08-.07c.17-.77.35-1.53.52-2.3.05-.31.11-.62.16-.94.16-.97.33-1.94.49-2.91,0-.49.02-.99.03-1.48h.02Z"/>
  <path class="cls-23" d="m12.42,23.41c-.25,2.21-.71,4.41-.73,6.62-.08,9.1-.08,18.21,0,27.32.02,2.12.5,4.24.77,6.37-.43-1.03-1.21-2.06-1.22-3.09-.09-11.29-.1-22.58,0-33.87,0-1.12.77-2.23,1.18-3.35h0Z"/>
  <path class="cls-10" d="m15.12,174.62c-.02,11.09-.04,22.17-.07,33.26,0,1.28-.05,2.57-.07,3.85-.14-.44-.4-.88-.4-1.33-.02-12.81-.02-25.62-.02-38.44,0-.23.05-.46.13-.67.02-.05.26,0,.39-.02,0,.79.02,1.58.03,2.38v.97h.01Z"/>
  <path class="cls-10" d="m99.01,156.77c.35-5.21.69-10.43,1.07-15.64.19-2.7.4-5.4.71-8.08.09-.82.54-1.6.83-2.41-.55,6.79-1.1,13.58-1.63,20.37-.1,1.27.02,2.56-.13,3.82-.08.67-.55,1.29-.85,1.94h0Z"/>
  <path class="cls-23" d="m117.34,219.28c7.28,3.79,14.78,4.14,22.48,1.44-.33.31-.61.78-1.01.92-6.97,2.55-13.79,2-20.43-1.18-.44-.21-.7-.78-1.04-1.18h0Z"/>
  <path class="cls-10" d="m94.93,230.49c.53-6.22,1.06-12.43,1.59-18.65.15-1.82.29-3.65.44-5.47-.29,7.3-.55,14.6-.92,21.89-.04.76-.72,1.48-1.11,2.22h0Z"/>
  <path class="cls-10" d="m71.85,145.24c.05.31.09.62.14.93.02.96.03,1.91.06,2.87.25,8.2.51,16.4.76,24.6h-.38c-.17-6.39-.32-12.78-.52-19.17-.1-3.11-.29-6.21-.45-9.32.13.04.25.07.39.09h0Z"/>
  <path class="cls-10" d="m97.1,199.64c.32-7.53.63-15.06.95-22.59.12,3.8.34,7.59.34,11.38,0,2.77-.22,5.55-.46,8.32-.09.98-.54,1.93-.83,2.89h0Z"/>
  <path class="cls-10" d="m98.07,176.52c.31-6.26.62-12.52.94-18.78.13,1.96.39,3.92.36,5.87-.06,3.57-.24,7.15-.48,10.71-.05.75-.54,1.46-.82,2.19h0Z"/>
  <path class="cls-7" d="m18.47,144.76c-.02,7.2-.02,14.39-.08,21.59,0,.82-.34,1.63-.52,2.45-.34.16-.68.32-1.02.48-.13,0-.26,0-.39.04,1.96-1.89,1.46-4.32,1.47-6.64.02-5.82,0-11.63,0-17.45,0-.15.03-.33.12-.42.07-.07.26-.03.4-.03v-.02Z"/>
  <path class="cls-7" d="m51.66,168.63c-.35-.76-.99-1.51-1-2.27-.14-7.36-.18-14.73-.25-22.1.27.84.75,1.68.76,2.53.07,6.18,0,12.35.06,18.53,0,1.1.28,2.2.43,3.31h0Z"/>
  <path class="cls-10" d="m109.36,144.5c-1.43,4.9-1.21,9.77.37,14.59-2.31-3.08-2.3-6.65-1.92-10.2.16-1.5,1.01-2.93,1.55-4.4h0Z"/>
  <path class="cls-10" d="m139.37,130.41c-4.85-1.9-9.81-2.13-14.86-.97,1.52-.48,3.02-1.3,4.56-1.36,3.59-.13,7.27-.22,10.3,2.33Z"/>
  <path class="cls-2" d="m71.85,145.24c-.13-.02-.26-.05-.39-.09,0-.16-.04-.31-.1-.46-.1-3.69-.21-7.38-.31-11.06.25.17.7.33.71.51.2,3.51.36,7.03.5,10.55,0,.18-.27.36-.42.54h0Z"/>
  <path class="cls-2" d="m74.4,198.71c-.2-3.7-.41-7.39-.61-11.09.05-.33.09-.65.14-.98.25.17.73.35.72.51-.05,3.85-.16,7.7-.25,11.55h0Z"/>
  <path class="cls-23" d="m72.43,173.64h.38c.16.5.33.99.49,1.49.05.31.09.62.14.93.15,3.21.3,6.42.45,9.64-.04.33-.08.66-.12,1-.33-.72-.9-1.42-.94-2.16-.21-3.63-.28-7.26-.4-10.89h0Z"/>
  <path class="cls-10" d="m58.3,96.53c.78,2.87,1.56,5.73,2.33,8.6.27.98.52,1.96.78,2.95-1.31-3.66-2.63-7.31-3.89-10.99-.03-.09.51-.37.78-.56Z"/>
  <path class="cls-10" d="m71.06,133.64c.1,3.69.21,7.38.31,11.06-.29-2.16-.63-4.32-.84-6.5-.22-2.19-.31-4.39-.46-6.59.33.67.66,1.35,1,2.02h0Z"/>
  <path class="cls-2" d="m79.12,234.89c3.09.54,6.18,1.08,9.27,1.63-2.11.07-4.21.14-6.32.21l.05.03c-.49-.23-.99-.47-1.48-.7-.51-.39-1.01-.77-1.52-1.16h0Z"/>
  <path class="cls-23" d="m82.07,236.73c2.11-.07,4.21-.14,6.32-.21.45-.09.91-.18,1.36-.27-1.94,1.87-5.48,2.09-7.68.48h0Z"/>
  <path class="cls-10" d="m61.86,109.45c.99,2.59,1.98,5.17,2.97,7.76-.99-2.59-1.98-5.17-2.97-7.76Z"/>
  <path class="cls-21" d="m46.31,105.22c-.77-1.96-1.53-3.91-2.3-5.87,2.04,1.46,2.05,3.71,2.3,5.87Z"/>
  <path class="cls-10" d="m102.64,127.8c.64-1.64,1.28-3.27,1.92-4.91-.64,1.64-1.28,3.27-1.92,4.91Z"/>
  <path class="cls-10" d="m105.62,120.13c.52-1.44,1.05-2.88,1.57-4.33-.52,1.44-1.05,2.88-1.57,4.33Z"/>
  <path class="cls-1" d="m15.11,173.65c0-.79-.02-1.58-.03-2.38.3-.36.6-.73.9-1.09l-.87,3.46h0Z"/>
  <path class="cls-10" d="m68.29,126.78c.5,1.26.99,2.53,1.49,3.79-.49-1.26-.99-2.53-1.49-3.79Z"/>
  <path class="cls-1" d="m15.08,218.01c.28,1.39.57,2.79.85,4.18-.28-1.39-.57-2.79-.85-4.18Z"/>
  <path class="cls-10" d="m124.58,129.38c-.92.39-1.84.78-2.76,1.16.92-.39,1.84-.78,2.76-1.16Z"/>
  <path class="cls-10" d="m64.78,117.14c.37.96.74,1.91,1.12,2.87-.37-.96-.74-1.91-1.12-2.87Z"/>
  <path class="cls-10" d="m101.52,130.51c.39-.92.78-1.84,1.18-2.76-.39.92-.78,1.84-1.18,2.76Z"/>
  <path class="cls-10" d="m67.23,123.87c.38.94.75,1.88,1.13,2.81-.38-.94-.75-1.88-1.13-2.81Z"/>
  <path class="cls-23" d="m89.7,236.27c.19-.18.37-.35.56-.53.18-.12.36-.25.54-.37l.47-.34c.28-.14.55-.28.83-.42-.8.55-1.6,1.1-2.4,1.65h0Z"/>
  <path class="cls-23" d="m92.55,233.91c.49-.52.97-1.04,1.46-1.56l-1.59,1.98c.06-.13.11-.27.13-.42Z"/>
  <path class="cls-10" d="m72.82,66.61c.07-.35.15-.7.22-1.04.23-.32.47-.65.7-.97l.08.07c-.33.65-.66,1.29-1,1.94Z"/>
  <path class="cls-10" d="m23.8,11.23c-.79.38-1.59.75-2.38,1.13.79-.38,1.59-.75,2.38-1.13Z"/>
  <path class="cls-10" d="m66.01,11.9c-.79-.37-1.58-.75-2.37-1.12.79.37,1.58.75,2.37,1.12Z"/>
  <path class="cls-10" d="m110.73,141.01c-.37.79-.75,1.58-1.12,2.37.38-.79.75-1.58,1.12-2.37Z"/>
  <path class="cls-2" d="m92.55,233.91c-.02.15-.06.28-.13.42-.11.1-.22.2-.33.3-.28.14-.55.28-.83.42l1.28-1.13h0Z"/>
  <path class="cls-10" d="m93.97,232.41c.34-.66.68-1.32,1.02-1.99-.34.66-.68,1.32-1.02,1.99Z"/>
  <path class="cls-23" d="m142.7,219.37c.55-.38,1.11-.77,1.66-1.15-.55.38-1.11.77-1.66,1.15Z"/>
  <path class="cls-23" d="m14.68,18.47c-.28.52-.56,1.04-.85,1.55.28-.52.56-1.04.85-1.55Z"/>
  <path class="cls-10" d="m117.82,132.73c-.48.36-.96.72-1.44,1.08.48-.36.96-.72,1.44-1.08Z"/>
  <path class="cls-10" d="m20.38,74.24c.52.28,1.05.56,1.57.84-.52-.28-1.05-.56-1.57-.84Z"/>
  <path class="cls-10" d="m18.95,73.27c.5.34.99.68,1.49,1.02-.5-.34-.99-.68-1.49-1.02Z"/>
  <path class="cls-23" d="m54.05,221.26c.02.2.03.39.05.59-.35.32-.7.63-1.05.95.34-.51.67-1.02,1.01-1.54h0Z"/>
  <path class="cls-10" d="m24.27,112.44c-.32.51-.65,1.01-.97,1.52.32-.51.65-1.01.97-1.52Z"/>
  <path class="cls-21" d="m44.04,99.37c-.34-.29-.68-.57-1.02-.86.34.29.68.57,1.02.86Z"/>
  <path class="cls-23" d="m144.53,218.11c.38-.24.75-.49,1.13-.73-.38.24-.75.49-1.13.73Z"/>
  <path class="cls-23" d="m12.93,22.07c-.18.43-.36.87-.53,1.3.18-.43.36-.87.53-1.3Z"/>
  <path class="cls-10" d="m61.37,108.02c.18.5.37.99.55,1.49-.18-.5-.37-.99-.55-1.49Z"/>
  <path class="cls-10" d="m105.06,121.55c.2-.49.39-.98.59-1.47-.2.49-.39.98-.59,1.47Z"/>
  <path class="cls-10" d="m66.18,121.04c.19.49.38.99.57,1.48-.19-.49-.38-.99-.57-1.48Z"/>
  <path class="cls-10" d="m104.5,122.94c.21-.49.41-.97.62-1.46-.21.49-.41.97-.62,1.46Z"/>
  <path class="cls-10" d="m66.7,122.45c.2.49.39.99.59,1.48-.2-.49-.39-.99-.59-1.48Z"/>
  <path class="cls-23" d="m80.64,236.05c.49.23.99.47,1.48.7-.49-.23-.99-.47-1.48-.7Z"/>
  <path class="cls-10" d="m17.13,7.28c.41-.19.83-.39,1.24-.58-.41.19-.83.39-1.24.58Z"/>
  <path class="cls-10" d="m66.78,12.43c-.27-.18-.53-.36-.8-.54.27.18.53.36.8.54Z"/>
  <path class="cls-10" d="m21.47,12.32c-.29.2-.58.39-.87.59.29-.19.58-.39.87-.59Z"/>
  <path class="cls-10" d="m19.42,13.61c-.3.22-.61.44-.91.65.3-.22.61-.44.91-.65Z"/>
  <path class="cls-23" d="m15.31,17.71c-.22.27-.45.54-.67.8.22-.27.45-.54.67-.8Z"/>
  <path class="cls-23" d="m13.85,20.04c-.17.32-.34.63-.51.95.17-.31.34-.63.51-.95Z"/>
  <path class="cls-23" d="m13.36,20.99c-.13.31-.27.62-.4.93.13-.31.27-.62.4-.93Z"/>
  <path class="cls-10" d="m72.29,67.56c.19-.33.38-.66.57-.99-.19.33-.38.66-.57.99Z"/>
  <path class="cls-10" d="m71.73,68.45c.21-.32.41-.64.62-.96-.21.32-.41.64-.62.96Z"/>
  <path class="cls-10" d="m70.7,69.76c.24-.26.47-.53.71-.79-.24.26-.47.53-.71.79Z"/>
  <path class="cls-10" d="m17.8,72.16c.23.24.45.47.68.71-.23-.24-.45-.47-.68-.71Z"/>
  <path class="cls-10" d="m21.97,75.05c.31.16.62.32.93.48-.31-.16-.62-.32-.93-.48Z"/>
  <path class="cls-10" d="m25.91,110.33c-.23.24-.47.48-.7.72.23-.24.47-.48.7-.72Z"/>
  <path class="cls-10" d="m24.87,111.54c-.21.31-.42.63-.63.94.21-.31.42-.63.63-.94Z"/>
  <path class="cls-10" d="m23.35,113.9c-.17.35-.33.7-.5,1.05.17-.35.33-.7.5-1.05Z"/>
  <path class="cls-10" d="m65.84,119.99c.13.37.25.73.38,1.1-.13-.37-.25-.73-.38-1.1Z"/>
  <path class="cls-10" d="m121.72,130.53c-.32.15-.63.31-.95.47.32-.15.63-.31.95-.47Z"/>
  <path class="cls-10" d="m140.35,130.87c-.35-.17-.7-.34-1.05-.51.35.17.7.34,1.05.51Z"/>
  <path class="cls-10" d="m69.75,130.62c.12.35.24.71.36,1.06-.12-.35-.24-.71-.36-1.06Z"/>
  <path class="cls-10" d="m120.78,130.94c-.3.18-.6.37-.9.56.3-.18.6-.37.9-.56Z"/>
  <path class="cls-10" d="m141.27,131.41c-.33-.2-.66-.4-.99-.6.33.2.66.4.99.6Z"/>
  <path class="cls-10" d="m119.27,131.77c-.3.22-.61.43-.91.65.3-.22.61-.43.91-.65Z"/>
  <path class="cls-10" d="m142.77,132.35c-.32-.21-.65-.42-.97-.63.32.21.65.42.97.63Z"/>
  <path class="cls-10" d="m113.17,137.29c-.24.25-.47.5-.71.76.24-.25.47-.5.71-.76Z"/>
  <path class="cls-10" d="m112.14,138.55c-.21.31-.43.63-.64.94.21-.31.43-.63.64-.94Z"/>
  <path class="cls-10" d="m111.25,140.17c-.18.29-.36.57-.54.86.18-.29.36-.57.54-.86Z"/>
  <path class="cls-10" d="m109.66,143.32c-.12.34-.23.68-.35,1.02.12-.34.23-.68.35-1.02Z"/>
  <path class="cls-10" d="m109.69,159.04c.15.36.29.71.44,1.07-.15-.36-.29-.71-.44-1.07Z"/>
  <path class="cls-10" d="m110.08,160.05c.17.35.34.69.51,1.04-.17-.35-.34-.69-.51-1.04Z"/>
  <path class="cls-10" d="m110.54,161.03c.17.34.35.69.52,1.03-.17-.34-.35-.69-.52-1.03Z"/>
  <path class="cls-10" d="m111.02,162c.24.34.47.68.71,1.02-.24-.34-.47-.68-.71-1.02Z"/>
  <path class="cls-23" d="m115.05,217.75c.28.22.56.44.84.67-.28-.22-.56-.44-.84-.67Z"/>
  <path class="cls-23" d="m116.57,218.7c.27.21.54.41.81.62-.27-.21-.54-.41-.81-.62Z"/>
  <path class="cls-23" d="m141.76,219.88c.33-.18.66-.37.99-.55-.33.18-.66.37-.99.55Z"/>
  <path class="cls-23" d="m140.78,220.35c.34-.17.68-.34,1.03-.5-.34.17-.68.34-1.03.5Z"/>
  <path class="cls-23" d="m139.77,220.76c.35-.15.71-.3,1.06-.46-.35.15-.71.3-1.06.46Z"/>
  <path class="cls-23" d="m16.53,223.16c.3.07.6.14.9.21.02.12.05.25.08.37l-.07.07c-.3-.22-.6-.43-.91-.65h0Z"/>
  <path class="cls-10" d="m19.97,13.16c-.19.16-.39.32-.58.48.19-.16.39-.32.58-.48Z"/>
  <path class="cls-10" d="m20.53,12.87c-.21.12-.42.24-.63.36.21-.12.42-.24.63-.36Z"/>
  <path class="cls-10" d="m67.57,12.87c-.2-.18-.41-.36-.61-.54.2.18.41.36.61.54Z"/>
  <path class="cls-10" d="m115.4,134.63c-.18.18-.36.36-.54.54.18-.18.36-.36.54-.54Z"/>
  <path class="cls-10" d="m115.91,134.16c-.19.18-.38.35-.57.53.19-.18.38-.35.57-.53Z"/>
  <path class="cls-10" d="m116.44,133.72c-.2.17-.4.34-.6.51.2-.17.4-.34.6-.51Z"/>
  <path class="cls-10" d="m118.39,132.34c-.21.14-.42.29-.63.44.21-.14.42-.29.63-.44Z"/>
  <path class="cls-10" d="m141.83,131.74c-.21-.14-.42-.28-.64-.41.21.14.42.28.64.41Z"/>
  <path class="cls-10" d="m119.85,131.45c-.21.12-.42.25-.63.37.21-.12.42-.25.63-.37Z"/>
  <path class="cls-23" d="m114.39,217.34c.21.15.43.31.64.46-.21-.15-.43-.31-.64-.46Z"/>
  <path class="cls-23" d="m115.84,218.38c.2.1.41.19.61.29-.2-.1-.41-.19-.61-.29Z"/>
  <path class="cls-10" d="m25.25,111c-.16.21-.31.41-.47.62.16-.21.31-.41.47-.62Z"/>
  <path class="cls-10" d="m26.35,109.68c-.13.18-.27.36-.4.54.13-.18.27-.36.4-.54Z"/>
  <path class="cls-10" d="m26.8,109.08c-.18.21-.37.42-.55.63.18-.21.37-.42.55-.63Z"/>
  <path class="cls-10" d="m18.44,72.84c.19.17.38.34.57.5-.19-.17-.38-.34-.57-.5Z"/>
  <path class="cls-10" d="m17.49,71.92l.14.09c-.1.07-.2.14-.29.2.05-.1.1-.2.15-.3h0Z"/>
  <path class="cls-10" d="m69.76,70.94c.22-.21.43-.42.65-.63-.22.21-.43.42-.65.63Z"/>
  <path class="cls-10" d="m70.29,70.37c.15-.19.3-.39.44-.59-.15.19-.3.39-.44.59Z"/>
  <path class="cls-10" d="m71.38,69.02c.15-.21.29-.42.44-.64-.15.21-.29.43-.44.64Z"/>
  <path class="cls-10" d="m111.54,139.44c-.1.21-.2.41-.3.62.1-.21.2-.41.3-.62Z"/>
  <path class="cls-7" d="m15.05,268.14c-.16-.16-.33-.32-.49-.47l.02-.02c.16.16.32.32.48.49h0Z"/>
  <path class="cls-7" d="m15.05,268.13c.16.16.32.32.48.48h0c-.16-.16-.32-.32-.48-.48h0Z"/>
  <path class="cls-7" d="m15.53,268.62c.16.16.32.32.48.48h0c-.16-.16-.32-.32-.48-.48h0Z"/>
  <path class="cls-7" d="m16.01,269.1l.19.11c-.06-.04-.13-.07-.19-.11h0Z"/>
  <path class="cls-10" d="m112.5,137.99c-.15.21-.3.42-.45.64.15-.21.3-.42.45-.64Z"/>
  <path class="cls-10" d="m113.57,136.62c-.13.2-.26.4-.39.6.13-.2.26-.4.39-.6Z"/>
  <path class="cls-10" d="m113.99,136.09c-.17.2-.34.4-.51.6.17-.2.34-.4.51-.6Z"/>
  <path class="cls-10" d="m114.45,135.59c-.18.19-.35.38-.53.57.18-.19.35-.38.53-.57Z"/>
  <path class="cls-23" d="m15.79,17.01c-.18.22-.36.44-.53.66.18-.22.36-.44.53-.66Z"/>
  <path class="cls-10" d="m114.92,135.11c-.18.18-.36.37-.54.55.18-.18.36-.37.54-.55Z"/>
  <path class="cls-10" d="m18.58,14.16c-.21.19-.41.38-.62.57.2-.19.41-.38.62-.57Z"/>
  <path class="cls-24" d="m159.59,25.68c.02,21.21.06,42.41.06,63.62v163.87c0,.96-.05,1.92-.08,2.89-.13-1.09-.39-2.18-.39-3.27-.02-53.1-.02-106.19-.02-159.29,0-21.68,0-43.35.02-65.03,0-.93.26-1.85.39-2.78h.02Z"/>
  <path class="cls-5" d="m154.81,187.41c-.17-.57-.34-1.13-.5-1.7.17.57.34,1.13.5,1.7Z"/>
  <path class="cls-5" d="m154.31,185.75c-.17-.33-.34-.65-.51-.98.17.33.34.65.51.98Z"/>
  <path class="cls-5" d="m153.84,207.38c.17-.4.33-.81.5-1.21-.17.4-.33.81-.5,1.21Z"/>
  <path class="cls-26" d="m6.45,256.07c-.02-19.68-.06-39.36-.07-59.04,0-57.68,0-115.37,0-173.05,0-.72.05-1.44.08-2.16.13.85.39,1.7.39,2.54.02,76.39.02,152.78,0,229.17,0,.85-.25,1.69-.39,2.54h0Z"/>
  <path class="cls-12" d="m26.04,4.85c3.25-.08,6.5-.17,9.76-.25-3.25.08-6.5.17-9.76.25Z"/>
  <path class="cls-12" d="m134.1,4.56c2.45.09,4.91.19,7.36.28-2.45-.09-4.91-.19-7.36-.28Z"/>
  <path class="cls-12" d="m105.18,4.57c.82,0,1.63,0,2.45,0-.82,0-1.63,0-2.45,0Z"/>
  <path class="cls-22" d="m89.84,128.33c-.03.32-.05.64-.08.96-.48.67-.91,1.87-1.45,1.92-2.21.22-4.46.09-6.64.09v-3c.11-.29.34-.59.3-.86-.6-4.8-1.17-9.6-1.89-14.39-.25-1.69-.87-3.33-1.32-4.99-.04-.29-.09-.59-.13-.88.84-1.15.91-2.18-.51-2.94l.04.05c-.52-1.85-2.15-1.21-2.91-.79-.86.48-1.81,1.81-1.77,2.73.14,3.33.61,6.66,1.09,9.97.64,4.33,1.44,8.63,2.09,12.96.07.46-.46,1.01-.7,1.51-.42-.38-.91-.7-1.26-1.14-.59-.75-1.09-1.58-1.62-2.37l.06-.18c-.44-1.73-.78-3.5-1.36-5.19-.34-1-1.05-1.88-1.59-2.81l.05-.2c-1.4-3.87-2.8-7.75-4.21-11.62l.05.06c-.55-1.41-1.1-2.82-1.65-4.23,0,0,.06-.07.06-.08-.09-.77-.14-1.54-.27-2.29-.3-1.78-.64-3.55-.97-5.32.28-.41.55-.83.83-1.24.16-.21.32-.42.48-.64l-.07.04c.16-.18.32-.37.47-.55.05.04.09.08.14.12-.05-.04-.1-.07-.15-.11.16-.16.31-.33.47-.5l.15.06s-.14-.09-.13-.08c.54-.44,1.08-.88,1.62-1.32l-.06.07c.2-.16.39-.33.59-.49l-.04.03c.48-.35.97-.7,1.45-1.05l-.05.05c.82-.5,1.64-1,2.46-1.5l-.05.05c.33-.19.67-.38,1-.57l-.06.05c.35-.17.7-.34,1.05-.51l-.06.05c.92-.39,1.84-.79,2.75-1.18l.13.09c.55.03,1.1.15,1.64.09,3.84-.43,7.69-.9,11.53-1.36l-.04-.03c2.6.58,5.2,1.16,7.8,1.75l.18-.06c.76.35,1.52.69,2.29,1.03,0,0,.04-.03.04-.02.94.55,1.87,1.09,2.81,1.63l-.05-.05c.52.35,1.04.69,1.56,1.04.9.82,1.81,1.63,2.71,2.45.03.16.05.31.08.46l-.02-.02c-.15,1.94.14,4.05-.52,5.8-2.31,6.13-4.88,12.17-7.49,18.18-.57,1.32-1.7,2.41-2.57,3.61.74-4.77,1.54-9.53,2.15-14.32.1-.77-.44-2.02-1.07-2.38-.73-.42-1.88-.1-2.85-.1h-.02c-2.08.84-1.59,2.65-1.61,4.27l.02-.02c-.49,2.19-1.13,4.36-1.42,6.57-.37,2.75-.44,5.54-.65,8.32-.27,1.77-.53,3.55-.8,5.32h-.03Z"/>
  <path class="cls-8" d="m81.54,166.45h8.12v18.34c.01,7.31.08,14.62.04,21.93-.03,4.45-.24,8.91-.34,13.36-.06,2.49-.06,4.97-.08,7.46-.03,4.14-2.11,5.65-6.28,4.55-.32-2.93-.89-5.85-.92-8.78-.25-18.95-.38-37.91-.55-56.87h0Z"/>
  <path class="cls-8" d="m79.63,136.06c3.93,0,7.86.08,11.78-.06,1.89-.07,2.42.66,2.22,2.39-.54,4.67-1.02,9.34-1.55,14.01-.17,1.5-.43,2.99-.67,4.48-.18,1.16,0,2.95-.65,3.35-1.19.73-2.88.74-4.37.85-1.75.13-3.52.04-5.29.05-.49-8.35-.99-16.71-1.48-25.06h0Z"/>
  <path class="cls-4" d="m81.54,166.45c.17,18.96.3,37.91.55,56.87.04,2.93.6,5.85.92,8.78-2.48-.73-3.71-2.31-3.83-5.1-.2-4.71-.38-9.43-.47-14.14-.21-11.44-.35-22.88-.56-34.33-.05-2.79-.35-5.58-.44-8.37-.11-3.74-.07-3.74,3.83-3.7h0Z"/>
  <path class="cls-4" d="m79.63,136.06c.49,8.35.99,16.71,1.48,25.06-1.15.18-2.31.36-3.78.58-.64-8.67-1.25-17.03-1.89-25.65h4.19Z"/>
  <path class="cls-13" d="m96.1,120.68c.87-1.2,1.99-2.28,2.57-3.61,2.61-6.01,5.18-12.05,7.49-18.18.66-1.75.37-3.86.52-5.8.65.6,1.3,1.21,1.95,1.81-.15,1.69-.3,3.39-.44,5.08l.05-.06c-.19.5-.38.99-.57,1.49l.05-.06c-.19.49-.37.98-.56,1.47l.03-.03c-.52,1.43-1.04,2.86-1.56,4.29-.07.19-.13.38-.2.56-.36.82-.73,1.63-1.09,2.45l.06-.04c-.19.5-.38.99-.56,1.49,0,0,.06-.06.05-.06-.19.49-.38.99-.57,1.48l.05-.05c-.48,1.15-.95,2.29-1.43,3.43l.11.03c-.2.47-.4.95-.6,1.42h.1c-.22.48-.43.96-.65,1.45-.82,2.55-1.63,5.09-2.45,7.64-.34.78-.76,1.53-1.01,2.33-.52,1.71-1.58,2.24-3.39,1.8v-2.2c.04-.31.08-.63.12-.94.32-1.46.65-2.92.97-4.38.32-.94.64-1.88.96-2.81h0Z"/>
  <path class="cls-3" d="m73.08,127.16c.54.79,1.03,1.62,1.62,2.37.34.44.83.76,1.26,1.14.25-.51.77-1.05.7-1.51-.64-4.33-1.45-8.63-2.09-12.96-.49-3.31-.95-6.63-1.09-9.97-.04-.92.91-2.26,1.77-2.73.77-.42,2.39-1.06,2.91.79-2.99-1.11-4.21-.36-3.85,2.69.78,6.48,1.74,12.94,2.63,19.42.22,1.57.44,3.14.68,4.91h-3.1c-.46-1.32-.96-2.73-1.45-4.15h.01Z"/>
  <path class="cls-2" d="m73.3,175.13c-.16-.5-.33-.99-.49-1.49-.25-8.2-.51-16.4-.76-24.6-.03-.96-.04-1.91-.06-2.87.29.32.83.63.84.96.37,8.91.7,17.82.99,26.74,0,.41-.34.84-.52,1.26Z"/>
  <path class="cls-3" d="m78.76,108.07c.45,1.66,1.07,3.3,1.32,4.99.72,4.78,1.29,9.59,1.89,14.39.03.27-.2.57-.3.86-.17-.16-.33-.33-.5-.49-.05-.31-.1-.62-.14-.94-.13-.18-.26-.36-.39-.53-.03-.78-.05-1.57-.08-2.35-.12-.33-.24-.66-.37-.99-.04-.8-.08-1.59-.12-2.39-.12-.33-.24-.66-.36-.99-.04-.96-.08-1.91-.12-2.87-.12-.49-.24-.98-.37-1.47-.03-.32-.06-.63-.09-.95-.13-.97-.26-1.94-.39-2.91,0-.63-.02-1.27-.03-1.9.02-.49.03-.98.05-1.47h0Z"/>
  <path class="cls-2" d="m76.15,230.1c-.42-6.28-.84-12.57-1.26-18.85.3.64.83,1.26.87,1.92.33,5.46.57,10.93.81,16.39,0,.17-.27.36-.42.54Z"/>
  <path class="cls-3" d="m96.1,120.68c-.32.94-.64,1.88-.96,2.81-.03-.16-.07-.31-.12-.47.06-.47.11-.93.17-1.4.1-.66.21-1.32.31-1.97.06-.46.13-.93.19-1.39.58-4.04,1.16-8.07,1.73-12.11,0-.32,0-.65-.01-.97-.12-.18-.25-.36-.37-.54l.02.02c-.91-.27-1.83-.53-2.74-.8.97,0,2.12-.32,2.85.1.63.36,1.17,1.61,1.07,2.38-.61,4.79-1.41,9.55-2.15,14.32v.02Z"/>
  <path class="cls-2" d="m81.17,127.82c.17.16.33.33.5.49v3c2.19,0,4.43.13,6.64-.09.54-.05.97-1.25,1.45-1.92.8,2.24.49,2.82-1.64,2.89-1.43.05-2.87,0-4.3,0-3.04,0-3.91-1.46-2.66-4.37h.01Z"/>
  <path class="cls-2" d="m97.42,106.16c-.58,4.04-1.16,8.07-1.73,12.11-.07-.86-.24-1.73-.18-2.57.18-2.41.37-4.83.73-7.23.12-.81.77-1.54,1.18-2.31Z"/>
  <path class="cls-3" d="m90.64,123.01c.2-2.77.28-5.56.65-8.32.29-2.22.94-4.38,1.42-6.57v3.34c-.05.31-.1.61-.16.92-.43,2.59-.86,5.17-1.28,7.76-.04.31-.07.62-.11.94-.17.65-.34,1.29-.52,1.94h0Z"/>
  <path class="cls-2" d="m94.04,128.82v2.2c1.81.44,2.87-.1,3.39-1.8.24-.8.67-1.56,1.01-2.33.22,2.67-1.33,5.32-3.17,5.27-.69-.02-1.95-.47-1.94-.71.01-.88.45-1.75.72-2.63h-.01Z"/>
  <path class="cls-3" d="m66.03,107.16c1.4,3.87,2.8,7.75,4.21,11.62-1.4-3.87-2.8-7.75-4.21-11.62Z"/>
  <path class="cls-2" d="m74.85,209.8c-.15-3.37-.29-6.75-.44-10.12.25.17.73.34.72.5-.06,3.21-.18,6.41-.29,9.62h0Z"/>
  <path class="cls-2" d="m73.89,185.7c-.15-3.21-.3-6.42-.45-9.64.25.17.73.34.73.5-.06,3.05-.17,6.09-.28,9.14Z"/>
  <path class="cls-3" d="m89.33,84.92c-3.84.46-7.68.92-11.53,1.36-.54.06-1.09-.05-1.64-.09,4.28-1.51,8.63-2.42,13.17-1.27Z"/>
  <path class="cls-2" d="m90.64,123.01c.17-.65.34-1.29.52-1.94.5,2.59.28,5.05-1.31,7.26l.8-5.32h0Z"/>
  <path class="cls-2" d="m91.27,120.14c.43-2.59.86-5.17,1.28-7.76-.03,1.57.09,3.16-.12,4.71-.15,1.05-.76,2.04-1.16,3.05h0Z"/>
  <path class="cls-3" d="m70.19,118.98c.54.93,1.25,1.81,1.59,2.81.58,1.69.92,3.45,1.36,5.19-.98-2.67-1.97-5.33-2.95-8Z"/>
  <path class="cls-2" d="m92.7,111.46v-3.34l-.02.02c.43-1.18.86-2.36,1.29-3.53l.13.12c-.17,1.94-.3,3.89-.55,5.82-.04.34-.56.61-.86.92h0Z"/>
  <path class="cls-3" d="m97.09,86.64c-2.6-.58-5.2-1.16-7.8-1.75,2.6.58,5.2,1.16,7.8,1.75Z"/>
  <path class="cls-3" d="m63.24,95.3c.33,1.77.67,3.54.97,5.32.13.76.19,1.53.27,2.29-.86-2.47-2.84-4.75-1.24-7.61Z"/>
  <path class="cls-2" d="m95.02,123.03c.05.15.09.31.12.47-.32,1.46-.65,2.92-.97,4.38.28-1.61.57-3.23.85-4.84h0Z"/>
  <path class="cls-22" d="m108.18,99.99c.15-1.69.3-3.39.44-5.08,1.2,1.81.44,3.45-.44,5.08Z"/>
  <path class="cls-3" d="m64.43,102.99c.55,1.41,1.1,2.82,1.65,4.23-.55-1.41-1.1-2.82-1.65-4.23Z"/>
  <path class="cls-22" d="m105.62,107.09c.52-1.43,1.04-2.86,1.56-4.29-.52,1.43-1.04,2.86-1.56,4.29Z"/>
  <path class="cls-2" d="m94.32,103.87c.91.27,1.83.53,2.74.8-.98.02-1.97.03-2.95.05l-.13-.12c.1-.24.21-.49.31-.73h.03Z"/>
  <path class="cls-22" d="m101.93,116.36c.48-1.14.95-2.29,1.43-3.43-.48,1.14-.95,2.29-1.43,3.43Z"/>
  <path class="cls-3" d="m78.12,104.25c1.41.77,1.34,1.79.51,2.94-.12-.04-.25-.07-.38-.09-.02-.32-.05-.63-.07-.95.02-.32.03-.65.05-.97-.03-.31-.07-.62-.1-.93h0Z"/>
  <path class="cls-2" d="m78.74,111.44c.13.97.26,1.94.39,2.91-.13-.97-.26-1.94-.39-2.91Z"/>
  <path class="cls-2" d="m95.5,119.66c-.1.66-.21,1.32-.31,1.97-.79-.8-1.02-1.51.31-1.97Z"/>
  <path class="cls-3" d="m76.03,86.1c-.92.39-1.84.79-2.75,1.18.92-.39,1.84-.79,2.75-1.18Z"/>
  <path class="cls-3" d="m102.4,89.22c-.94-.54-1.87-1.09-2.81-1.63.94.54,1.87,1.09,2.81,1.63Z"/>
  <path class="cls-2" d="m78.25,107.1c.13.02.25.05.38.09.04.29.09.59.13.88-.02.49-.03.98-.05,1.47l-.46-2.44Z"/>
  <path class="cls-3" d="m71.4,88.2c-.82.5-1.64,1-2.46,1.5.82-.5,1.64-1,2.46-1.5Z"/>
  <path class="cls-3" d="m99.56,87.61c-.76-.34-1.53-.69-2.29-1.03.76.34,1.52.69,2.29,1.03Z"/>
  <path class="cls-2" d="m79.22,115.3c.12.49.24.98.37,1.47-.12-.49-.24-.98-.37-1.47Z"/>
  <path class="cls-22" d="m104.33,110.11c.36-.82.73-1.63,1.09-2.45-.36.82-.73,1.63-1.09,2.45Z"/>
  <path class="cls-3" d="m67.05,91.08c-.54.44-1.08.88-1.62,1.32.54-.44,1.08-.88,1.62-1.32Z"/>
  <path class="cls-3" d="m68.99,89.64c-.48.35-.97.7-1.45,1.05.48-.35.97-.7,1.45-1.05Z"/>
  <path class="cls-3" d="m103.9,90.2c-.52-.35-1.04-.69-1.56-1.04.52.35,1.04.69,1.56,1.04Z"/>
  <path class="cls-2" d="m79.7,119.63c.12.33.24.66.36.99-.12-.33-.24-.66-.36-.99Z"/>
  <path class="cls-2" d="m80.18,123.01c.12.33.24.66.37.99-.12-.33-.24-.66-.37-.99Z"/>
  <path class="cls-2" d="m78.23,105.18c-.02.32-.03.65-.05.97.02-.32.03-.65.05-.97Z"/>
  <path class="cls-22" d="m103.82,111.55c.19-.5.38-.99.56-1.49-.19.5-.38.99-.56,1.49Z"/>
  <path class="cls-22" d="m100.89,119.25c.22-.48.43-.96.65-1.45-.22.48-.43.96-.65,1.45Z"/>
  <path class="cls-22" d="m107.15,102.83c.19-.49.37-.98.56-1.47-.19.49-.37.98-.56,1.47Z"/>
  <path class="cls-22" d="m107.66,101.42c.19-.5.38-.99.57-1.49-.19.5-.38.99-.57,1.49Z"/>
  <path class="cls-22" d="m103.31,112.97c.19-.49.38-.99.57-1.48-.19.49-.38.99-.57,1.48Z"/>
  <path class="cls-22" d="m101.44,117.81c.2-.47.4-.95.6-1.42-.2.47-.4.95-.6,1.42Z"/>
  <path class="cls-3" d="m73.34,87.23c-.35.17-.7.34-1.05.51.35-.17.7-.34,1.05-.51Z"/>
  <path class="cls-3" d="m72.35,87.68c-.33.19-.67.38-1,.57.33-.19.67-.38,1-.57Z"/>
  <path class="cls-2" d="m80.63,126.35c.13.18.26.36.39.53l-.39-.53Z"/>
  <path class="cls-2" d="m97.04,104.65c.12.18.25.36.37.54-.12-.18-.25-.36-.37-.54Z"/>
  <path class="cls-3" d="m64.55,93.42c-.16.21-.32.42-.48.64.16-.21.32-.42.48-.64Z"/>
  <path class="cls-3" d="m64.95,92.91c-.16.18-.31.37-.47.55.16-.18.31-.37.47-.55Z"/>
  <path class="cls-13" d="m106.69,93.12c-.03-.15-.05-.31-.08-.46.08.15.1.3.08.46Z"/>
  <path class="cls-3" d="m65.42,92.43c-.16.17-.31.33-.47.5.16-.17.31-.33.47-.5Z"/>
  <path class="cls-2" d="m76.7,231.64c-.12-.2-.23-.41-.35-.61.12.2.23.41.35.61Z"/>
  <path class="cls-3" d="m67.58,90.67c-.2.16-.39.33-.59.49.2-.16.39-.33.59-.49Z"/>
  <path class="cls-2" d="m90.8,235.38c-.18.12-.36.25-.54.37.18-.12.36-.25.54-.37Z"/>
  <path class="cls-9" d="m120.61,179.95c5.59-3.98,11.53-3.76,17.41-.99,7.97,3.75,11.61,11.73,10.48,20.36-1.04,7.93-7.33,14.35-15.39,15.62-5.21.82-10.2-.1-14.48-3.52-.21-.17-.41-.33-.62-.5l.02.08c-.44-.39-.88-.77-1.33-1.16l.02.02c-.11-.53-.21-1.06-.35-1.59-.83-3.37-1.95-6.69-2.45-10.11-.91-6.22,1.9-11.18,5.93-15.64.54-.6.51-1.7.75-2.57h.01Z"/>
  <path class="cls-19" d="m120.03,162.1c-.13-.13-.26-.26-.39-.39-.23-.22-.45-.44-.68-.66-.13-.02-.2-.09-.2-.22-.02-.53-.04-1.05-.06-1.58,0-.18,0-.35-.01-.53h0c.11-2.63-.16-5.34.4-7.87,1.22-5.46,4.77-9.25,9.63-11.9.52-.28.81-.98,1.58-1.98,1.48.09,3.69.21,5.91.34v-.06c.32.15.65.3.97.45h.09c.59.4,1.17.79,1.76,1.19l-.05-.04c.21.15.43.29.64.44l-.06-.07c.19.12.38.24.57.36l.12.08c.25.53.41,1.14.78,1.57,2.11,2.5,3.47,5.34,3.65,8.6.12,2.19-.13,4.4-.21,6.59l.08.09c-.23.45-.46.9-.68,1.35l.05-.06c-.19.34-.37.67-.56,1.01l.04-.04c-.32.51-.65,1.01-.97,1.52l.04-.05c-.4.53-.8,1.06-1.2,1.59-.02.09-.08.15-.17.17-.4.19-.8.38-1.2.57-.55.56-1.1,1.12-1.65,1.68l-.09.05c-.27.15-.53.29-.8.44l-.2.1c-1.7.21-3.43.68-5.11.57-3.07-.19-6.11-.73-9.17-1.12l-.08-.03c-.46-.31-.92-.62-1.37-.93l-.05-.03c-.27-.23-.54-.46-.81-.69l.04.03c-.19-.18-.38-.36-.57-.53h-.01Z"/>
  <path class="cls-25" d="m136.21,137.3c-2.22-.13-4.43-.26-5.91-.34-.78,1-1.06,1.7-1.58,1.98-4.85,2.66-8.41,6.44-9.63,11.9-.56,2.53-.3,5.24-.4,7.87-2.33-1.43-2.47-4.01-2.29-6.09.31-3.5,1.44-6.93,2.22-10.39l-.02.02c.1-.2.21-.39.31-.59l.06-.07c.26-.3.52-.6.78-.9.03-.18.14-.28.33-.29l.14.07-.08-.13c.1-.12.21-.24.31-.36.34-.24.67-.48,1.01-.71.22-.17.44-.35.66-.52.02-.16.12-.23.27-.23.79-.38,1.57-.75,2.36-1.13,3.81-1.76,7.63-1.84,11.46-.09Z"/>
  <path class="cls-23" d="m120.61,179.95c-.24.87-.21,1.97-.75,2.57-4.02,4.47-6.83,9.42-5.93,15.64.5,3.42,1.62,6.74,2.45,10.11.13.53.23,1.06.35,1.59-8.75-8.12-7.43-23.09,2.61-29.46.37-.23.84-.3,1.27-.45Z"/>
  <path class="cls-6" d="m118.62,142.23c-.78,3.46-1.92,6.89-2.22,10.39-.18,2.08-.04,4.66,2.29,6.09h0c0,.18,0,.35.01.53.02.53.04,1.05.06,1.58-4.36-6.02-4.41-13.26-.14-18.59Z"/>
  <path class="cls-25" d="m144.45,156.41c.08-2.2.34-4.41.21-6.59-.18-3.26-1.54-6.1-3.65-8.6-.37-.43-.52-1.04-.78-1.57,4.65,3.83,6.3,10.27,4.22,16.76h0Z"/>
  <path class="cls-6" d="m122.87,164.28c3.05.39,6.1.93,9.17,1.12,1.68.11,3.4-.36,5.11-.57-4.85,2.25-9.62,2.17-14.28-.55h0Z"/>
  <path class="cls-6" d="m124.74,137.4c-.79.38-1.57.75-2.36,1.13.79-.38,1.57-.75,2.36-1.13Z"/>
  <path class="cls-6" d="m138.23,164.24c.55-.56,1.1-1.12,1.65-1.68.17,0,.35,0,.52.02-.73.56-1.45,1.11-2.18,1.67h.01Z"/>
  <path class="cls-25" d="m139.02,138.89c-.59-.4-1.17-.79-1.76-1.19.59.4,1.17.79,1.76,1.19Z"/>
  <path class="cls-25" d="m141.25,161.81c.4-.53.8-1.06,1.2-1.59-.4.53-.8,1.06-1.2,1.59Z"/>
  <path class="cls-25" d="m142.41,160.27c.32-.51.65-1.01.97-1.52-.32.51-.65,1.01-.97,1.52Z"/>
  <path class="cls-6" d="m121.42,163.32c.46.31.92.62,1.37.93-.46-.31-.92-.62-1.37-.93Z"/>
  <path class="cls-23" d="m116.71,209.84c.44.39.89.77,1.33,1.16-.44-.39-.89-.77-1.33-1.16Z"/>
  <path class="cls-25" d="m140.41,162.57c-.17,0-.35,0-.52-.02.4-.19.8-.38,1.2-.57-.23.2-.45.39-.68.59h0Z"/>
  <path class="cls-6" d="m121.46,139.27c-.34.24-.67.48-1.01.71.34-.24.67-.48,1.01-.71Z"/>
  <path class="cls-6" d="m119.74,140.7c-.26.3-.52.6-.78.9.26-.3.52-.6.78-.9Z"/>
  <path class="cls-25" d="m143.85,157.85c.23-.45.46-.9.68-1.35-.23.45-.46.9-.68,1.35Z"/>
  <path class="cls-25" d="m137.17,137.69c-.32-.15-.65-.3-.97-.45.32.15.65.3.97.45Z"/>
  <path class="cls-6" d="m122.11,138.75c-.22.17-.44.35-.66.52.22-.17.44-.35.66-.52Z"/>
  <path class="cls-25" d="m143.34,158.8c.19-.34.37-.67.56-1.01-.19.34-.37.67-.56,1.01Z"/>
  <path class="cls-6" d="m118.96,161.04c.23.22.45.44.68.66-.23-.22-.45-.44-.68-.66Z"/>
  <path class="cls-6" d="m120.56,162.6c.27.23.54.46.81.69-.27-.23-.54-.46-.81-.69Z"/>
  <path class="cls-6" d="m137.34,164.73c.27-.15.53-.29.8-.44-.27.15-.53.29-.8.44Z"/>
  <path class="cls-23" d="m118.01,210.92c.21.17.41.33.62.5-.21-.17-.41-.33-.62-.5Z"/>
  <path class="cls-6" d="m120.03,162.1c.19.18.38.36.57.53-.19-.18-.38-.36-.57-.53Z"/>
  <path class="cls-6" d="m118.91,141.66c-.1.2-.21.39-.31.59.1-.2.21-.39.31-.59Z"/>
  <polygon class="cls-6" points="120.13 140.35 120.21 140.48 120.07 140.41 120.13 140.35"/>
  <path class="cls-25" d="m140.12,139.57c-.19-.12-.38-.24-.57-.36.19.12.38.24.57.36Z"/>
  <path class="cls-25" d="m139.61,139.29c-.21-.15-.43-.29-.64-.44.21.15.43.29.64.44Z"/>
  <path class="cls-8" d="m23.68,172.26c5.84.11,11.68.22,17.51.32.39,0,.77-.17,1.16-.23,3.84-.64,4.99.32,4.99,4.15,0,13.47-.04,26.95.04,40.42,0,1.99-.55,2.62-2.56,2.58-6.89-.14-13.79-.09-20.69-.11-.13-1.35-.38-2.69-.38-4.04-.05-14.36-.06-28.72-.08-43.08h.01Z"/>
  <path class="cls-4" d="m23.68,172.26c.02,14.36.03,28.72.08,43.08,0,1.35.25,2.69.38,4.04h-4.24v-12.91c.25-.36.5-.71.75-1.07,0-.13,0-.26.03-.39v-.52c-.02-.13-.02-.27,0-.4.05-1.27.13-2.54.14-3.82.04-9.33.06-18.66.09-27.98.92,0,1.85,0,2.77-.02h0Z"/>
  <path class="cls-25" d="m42.04,168.16h-1.98c-.7-.1-1.39-.29-2.09-.29-5.04,0-10.07.02-15.11.04v-20.73h19.2c0,.14,0,.28-.03.41-4.17,0-8.33.1-12.5,0-1.84-.05-2.56.42-2.48,2.4.15,3.92.04,7.85.04,11.78,0,5.62,0,5.68,5.67,5.6,3.1-.04,6.19-.3,9.29-.46,0,.15.04.3.11.44-.04.27-.07.54-.11.82h0Z"/>
  <path class="cls-16" d="m30.49,142.26h-4.23v-20.72c1.39-.16,2.78-.32,4.17-.47.03,6.91.07,13.81.1,20.72,0,.16-.02.32-.04.47h0Z"/>
  <path class="cls-16" d="m30.46,111.69c2.84-2.69,5.68-5.38,8.52-8.07.39,1.18.78,2.36,1.17,3.53-.16.3-.32.6-.49.91,0,.19.02.37.03.56-1.37,5.3-4.68,9.14-9.17,12.07-.2-2.78-.4-5.57-.6-8.35l-.03.08c.19-.24.37-.48.56-.72h.01Z"/>
  <path class="cls-14" d="m40.15,107.15c-.39-1.18-.78-2.36-1.17-3.53l.06.06c.2-.14.39-.28.59-.43,1.63-1.02,1.95-.04,1.96,1.32.04,6.23.08,12.47.1,18.7.02,6.29,0,12.59,0,18.99h-11.21c.02-.16.03-.31.04-.47,2.89,0,5.78,0,8.66.05,1.26.03,1.91-.28,1.9-1.73-.04-9.95,0-19.9-.07-29.85,0-.55-.87-1.1-1.33-1.65,0-.19-.02-.37-.03-.56.36-.21.72-.42,1.08-.64-.2-.09-.4-.18-.59-.27h.01Z"/>
  <path class="cls-8" d="m20.91,172.28c-.03,9.33-.05,18.66-.09,27.98,0,1.27-.09,2.54-.14,3.82-.27-.59-.78-1.19-.78-1.78-.05-9.43-.06-18.86,0-28.3,0-.58.65-1.15,1-1.72h0Z"/>
  <path class="cls-23" d="m29.93,112.33c.2,2.78.4,5.57.6,8.35-.03.13-.06.26-.1.39-1.39.16-2.78.32-4.17.47-.62-3.81,1.33-6.59,3.67-9.22h0Z"/>
  <path class="cls-21" d="m46.74,128.8v2.92c-.05.04-.16.1-.15.12.04.12.1.22.16.33v9.19c-.1.31-.21.62-.31.93-.18-.58-.51-1.16-.51-1.74-.03-8.21-.03-16.42,0-24.63,0-.52.25-1.05.38-1.57.12.46.23.92.35,1.39,0,.34.02.69.03,1.03-.06.04-.17.11-.16.12.05.12.12.23.18.34,0,3.7.03,7.41.04,11.11-.05.04-.16.1-.15.12.03.11.1.22.15.33h-.01Z"/>
  <path class="cls-21" d="m17.5,223.74c-.03-.12-.06-.24-.08-.37,1.28-.02,2.57-.07,3.85-.07,8.65,0,17.3,0,25.95.02.84,0,1.68.27,2.52.41H17.5Z"/>
  <path class="cls-22" d="m42.03,147.6c.03-.14.04-.27.03-.41h3.71v20.98h-3.73c.04-.27.07-.54.11-.82,2.17.05,3.25-1,3.26-3.14v-16.56h-3.23l-.14-.05h-.01Z"/>
  <path class="cls-22" d="m22.87,167.91c5.04-.02,10.07-.05,15.11-.04.7,0,1.39.19,2.09.29-5.56.05-11.13.1-16.69.13-.17,0-.34-.25-.51-.38Z"/>
  <path class="cls-8" d="m20.66,205.4c-.25.36-.5.71-.75,1.07.25-.36.5-.71.75-1.07Z"/>
  <path class="cls-21" d="m51.72,223.38c-.33.11-.66.22-1,.33.33-.11.66-.22,1-.33Z"/>
  <path class="cls-4" d="m46.65,115.75c-.12-.46-.23-.92-.35-1.39.05-.17.09-.34.14-.51.07.63.14,1.26.21,1.9Z"/>
  <path class="cls-1" d="m16.86,169.27c.34-.16.68-.32,1.02-.48-.34.16-.68.32-1.02.48Z"/>
  <path class="cls-4" d="m46.43,142.3c.1-.31.21-.62.31-.93,0,.33.02.65.03.98-.11-.02-.23-.03-.34-.04h0Z"/>
  <path class="cls-23" d="m30.46,111.69c-.19.24-.37.48-.56.72.19-.24.37-.48.56-.72Z"/>
  <path class="cls-16" d="m39.63,103.25c-.2.14-.39.28-.59.43.2-.14.39-.28.59-.43Z"/>
  <path class="cls-8" d="m20.69,204.48v.52c-.04-.12-.1-.24-.12-.36,0-.05.08-.11.12-.16Z"/>
  <path class="cls-5" d="m69.57,61.8c-1.07,1.77-1.96,3.68-3.24,5.27-3.16,3.9-7.47,5.17-12.37,5.15-7.69-.04-15.39.12-23.08.15-7.5.03-12.54-4.06-14.29-11.53.13-.53.38-1.05.38-1.58.02-10.35.02-20.7,0-31.05,0-.53-.25-1.05-.38-1.58.75-5.73,4.69-10.02,10.54-11.49.95-.15,1.91-.3,2.86-.46h1.48c1.13.25,2.25.66,3.39.72,1.17.06,2.37-.36,3.55-.31,8.33.34,16.75-1.03,24.98,1.22l.11-.06c.28.22.57.44.85.67l-.07-.05c.21.15.43.3.64.44l.03-.06c-.02.13-.04.25-.05.38.11-.05.21-.09.32-.14.95.96,1.9,1.91,2.85,2.87.31.55.63,1.1.94,1.65-.05.13,0,.23.1.29.29.81.59,1.61.88,2.42.04.33.08.65.13.98l-.16-.04c-.13.52-.38,1.04-.39,1.56-.03,10.22-.03,20.43,0,30.65,0,.52.26,1.04.4,1.56l-.37,2.39-.03-.02Zm-45.19-13.28l.02-.04c-.19.16-.38.32-.57.48l.06-.06c-.17.19-.33.37-.5.56l.04-.04c-.14.18-.27.36-.41.55l-.02.04c-.23.26-.46.52-.7.77l.03-.04-.42.63.07-.07c-.2.35-.41.7-.61,1.05-.18.25-.45.47-.52.75-1.42,5.49-.08,10.11,4.34,13.77.33.23.67.47,1,.7l-.05-.04c2.26,2.41,7.55,2.89,10.09.92l-.06.05c.78-.38,1.56-.76,2.34-1.15l-.03.09c.21-.15.43-.31.64-.46l3.11-3.27c.24-.35.47-.69.71-1.04l-.05.06c.16-.35.33-.71.49-1.06l-.06.07c.13-.33.26-.67.39-1l-.07-.13c1.62-1.27,1.58-3.86.27-6-.64-1.4-1.28-2.8-1.92-4.19-.23-.25-.46-.5-.7-.75l-.15-.16c-.21-.23-.41-.45-.62-.68l.04.03c-.18-.17-.35-.35-.53-.52l.03.04c-.67-.47-1.33-.95-2-1.42l.05.05c-1.21-.64-2.37-1.66-3.64-1.84-2.36-.33-4.94-.95-6.88,1.3l.04-.03c-.4.24-.81.48-1.21.72l-.11.04c-.2.1-.4.2-.6.29l.04-.04c-.25.22-.51.43-.76.65l-.11.06c-.17.12-.34.25-.51.37h.01Zm-3.04-12.8c.19.33.38.66.56.99l-.05-.06,1.54,2c.76.58,1.48,1.23,2.29,1.73,4.18,2.59,8.47,2.72,12.69.21,4.29-2.54,6.1-6.49,5.56-11.37-.51-4.58-3-7.93-7.35-9.54-5.64-2.09-10.3-.24-14.18,4.07-.14.21-.29.42-.43.64l.09.02c-.2.3-.39.61-.59.91l.04-.07c-.32.81-.64,1.62-.96,2.43l.07.05c-1.25,1.72-1.08,5.28.34,7.05l-.05-.07c.16.35.31.71.47,1.06l-.03-.05h0Zm34.32,13.18c2.75.15,5.05-1.79,5.22-4.43.19-2.92-1.75-5.19-4.56-5.33-2.87-.15-5.12,1.87-5.23,4.69-.11,2.77,1.82,4.91,4.58,5.07h-.01Zm.23-16.02c1.7.02,3.35-1.46,3.39-3.02s-1.66-3.2-3.28-3.17c-1.7.03-3.31,1.53-3.36,3.11-.04,1.69,1.4,3.05,3.24,3.07h0Z"/>
  <path class="cls-1" d="m69.57,61.8c.12-.8.25-1.59.37-2.39.06-.47.12-.93.18-1.4.03-.36.06-.73.09-1.09v-3.87l.02-2.73v-.64c0-3,0-6-.02-9,0-.37,0-.74,0-1.12,0-.43,0-.86,0-1.3,0-.37,0-.74,0-1.11,0-2.36.02-4.72.03-7.08,0-.21,0-.43,0-.64-.1-1.26-.21-2.52-.31-3.79l.16.04c.29.64.84,1.28.84,1.92.05,10.15.08,20.3-.03,30.45,0,1.25-.87,2.49-1.33,3.74h0Z"/>
  <path class="cls-10" d="m63.37,16.3c-8.24-2.25-16.65-.88-24.98-1.22-1.18-.05-2.37.37-3.55.31-1.14-.06-2.26-.47-3.39-.72,8.39-.11,16.78-.35,25.16-.22,2.26.03,4.5,1.21,6.75,1.86h0Z"/>
  <path class="cls-7" d="m16.57,26.62c.13.53.38,1.05.38,1.58.02,10.35.03,20.7,0,31.05,0,.53-.25,1.05-.38,1.58-.09-6.06-.24-12.12-.25-18.18,0-5.34.15-10.69.23-16.03h.02Z"/>
  <path class="cls-1" d="m73.74,64.6c-.23.32-.47.64-.7.97.41-1.09.82-2.18,1.22-3.27-.17.77-.35,1.53-.52,2.3Z"/>
  <path class="cls-10" d="m29.97,14.67c-.95.15-1.91.3-2.86.46.95-.15,1.91-.3,2.86-.46Z"/>
  <path class="cls-1" d="m69.97,24.7c-.29-.81-.59-1.61-.88-2.42.29.81.59,1.61.88,2.42Z"/>
  <path class="cls-1" d="m68.98,21.99c-.31-.55-.63-1.1-.94-1.65.31.55.63,1.1.94,1.65Z"/>
  <path class="cls-10" d="m64.32,16.91c-.28-.22-.57-.44-.85-.67.28.22.57.44.85.67Z"/>
  <path class="cls-10" d="m65.19,17.48c-.11.05-.21.09-.32.14.02-.12.03-.25.05-.38.14.02.23.1.27.23h0Z"/>
  <path class="cls-10" d="m64.9,17.3c-.21-.15-.42-.3-.64-.44.21.15.43.3.64.44Z"/>
  <path class="cls-4" d="m46.74,132.18c-.06-.11-.12-.22-.16-.33,0-.02.1-.08.15-.12v.45h.01Z"/>
  <path class="cls-4" d="m46.74,128.8c-.05-.11-.12-.21-.15-.33,0-.02.1-.08.15-.12.11.15.11.3,0,.45Z"/>
  <path class="cls-4" d="m46.7,117.24c-.06-.11-.14-.22-.18-.34,0-.02.1-.08.16-.12,0,.15,0,.31.02.46h0Z"/>
  <path class="cls-12" d="m74.94,27.08c.12.53.35,1.06.35,1.6.02,8.59.02,17.17,0,25.76,0,.53-.22,1.07-.34,1.6v-28.96h-.01Z"/>
  <path class="cls-12" d="m74.95,56.97c0,.49-.02.99-.03,1.48,0-.49.02-.99.03-1.48Z"/>
  <path class="cls-3" d="m94.3,103.87c-.1.24-.21.49-.31.73-.43,1.18-.86,2.36-1.29,3.53.02-1.62-.47-3.43,1.61-4.27h0Z"/>
  <path class="cls-25" d="m118.7,159.24c0-.18,0-.35-.01-.53,0,.18,0,.35.01.53Z"/>
  <path class="cls-3" d="m42.05,166.9c-3.1.16-6.19.42-9.29.46-5.67.08-5.67.02-5.67-5.6,0-3.93.11-7.86-.04-11.78-.07-1.97.64-2.45,2.48-2.4,4.16.11,8.33.02,12.5,0l.14.05c-.06.17-.13.33-.19.5-.05.04-.15.09-.14.11.04.1.1.19.15.28v1.06c-.14.52-.4,1.04-.4,1.57-.03,4.49-.04,8.99,0,13.49,0,.59.31,1.19.47,1.78.04.16.03.31-.02.47h0Z"/>
  <path class="cls-13" d="m42.05,166.9c.05-.15.05-.31.02-.47-.02-5.61-.05-11.22-.07-16.83v-1.06c.02-.13.02-.26,0-.39.06-.17.13-.33.19-.5h3.23v16.56c0,2.14-1.09,3.19-3.26,3.14-.06-.14-.1-.29-.11-.44h0Z"/>
  <path class="cls-11" d="m30.43,121.07c.04-.13.07-.26.1-.39,4.49-2.93,7.79-6.77,9.17-12.07.46.55,1.33,1.1,1.33,1.65.08,9.95.03,19.9.07,29.85,0,1.45-.64,1.76-1.9,1.73-2.89-.06-5.78-.04-8.66-.05-.03-6.91-.07-13.81-.1-20.72h-.01Z"/>
  <path class="cls-11" d="m40.15,107.15c.2.09.4.18.59.27-.36.21-.72.42-1.08.64.16-.3.32-.6.49-.91Z"/>
  <path class="cls-17" d="m22.4,23.75c3.88-4.32,8.54-6.16,14.18-4.07,4.35,1.61,6.85,4.96,7.35,9.54.54,4.88-1.27,8.83-5.56,11.37-4.22,2.5-8.51,2.38-12.69-.21-.81-.5-1.53-1.15-2.29-1.73-.51-.67-1.03-1.33-1.54-2l.05.06c-.19-.33-.38-.66-.56-.99l.03.05c-.16-.35-.31-.71-.47-1.06l.05.07c-.11-2.35-.22-4.7-.34-7.05,0,0-.07-.05-.08-.05.32-.81.64-1.62.96-2.43,0,0-.04.07-.04.06.2-.31.39-.61.59-.91l-.09-.02c.14-.21.29-.42.43-.64h.02Zm14.34,7.3c.13-2.38-1.96-4.78-4.26-4.91-2.47-.14-4.78,1.73-4.89,3.96-.13,2.57,1.93,5.06,4.29,5.19,2.61.15,4.72-1.7,4.86-4.24Z"/>
  <path class="cls-17" d="m42.24,63.71c-1.04,1.09-2.07,2.18-3.11,3.27-.21.15-.43.31-.64.46l.03-.09c-.78.38-1.56.76-2.34,1.14l.06-.05c-3.48.97-6.84.64-10.09-.92l.05.04c-.33-.23-.67-.47-1-.7-4.42-3.65-5.76-8.28-4.34-13.77.07-.28.34-.5.52-.75.2-.35.41-.7.61-1.05l-.07.07.42-.63-.03.04c.23-.26.46-.52.7-.77,0,0,.02-.04,0-.04.14-.18.27-.36.41-.55l-.04.04c.17-.19.33-.37.5-.56l-.06.06c.19-.16.38-.32.57-.48l-.02.04c.17-.12.34-.25.51-.37l.11-.06c.25-.22.51-.43.76-.65l-.04.04c.2-.1.4-.2.6-.29,0,0,.11-.04.11-.05.4-.24.81-.48,1.21-.72l-.04.03c3.57-1.04,7.09-1.03,10.52.55l-.05-.05c.67.47,1.33.95,2,1.42l-.03-.04c.18.17.35.35.53.52l-.04-.03c.21.23.41.45.62.68l.15.16c.23.25.46.5.7.75.64,1.4,1.28,2.8,1.92,4.19-.09,2-.18,4-.27,6l.07.13c-.13.33-.26.67-.4,1,0,0,.06-.07.06-.06-.16.35-.33.71-.49,1.06l.05-.06c-.24.35-.47.69-.71,1.04h0Zm-10.08-1.9c2.66,0,4.52-1.95,4.55-4.78.02-2.45-2.02-4.36-4.69-4.38-2.5-.02-4.39,1.98-4.37,4.61.02,2.66,1.9,4.55,4.51,4.55Z"/>
  <path class="cls-17" d="m55.66,48.91c-2.75-.15-4.69-2.3-4.58-5.07.11-2.82,2.36-4.84,5.23-4.69,2.81.14,4.76,2.41,4.56,5.33-.17,2.64-2.47,4.59-5.22,4.43h.01Z"/>
  <path class="cls-17" d="m55.89,32.89c-1.85-.02-3.29-1.39-3.24-3.07.04-1.58,1.66-3.08,3.36-3.11,1.62-.03,3.32,1.61,3.28,3.17-.04,1.56-1.7,3.04-3.39,3.02h0Z"/>
  <path class="cls-7" d="m70.23,30.07c0,2.36-.02,4.72-.03,7.08,0,.37,0,.74,0,1.11,0,.43,0,.86,0,1.3,0,.37,0,.74,0,1.12,0,3,0,6,.02,9v.64c0,.91-.02,1.82-.02,2.73v3.87c-.03.36-.06.73-.09,1.09-.06.47-.12.93-.18,1.4-.14-.52-.4-1.04-.4-1.56-.02-10.22-.02-20.43,0-30.65,0-.52.25-1.04.39-1.56.1,1.26.21,2.52.31,3.79,0,.21,0,.43,0,.64h0Z"/>
  <path class="cls-23" d="m38.13,47c-3.44-1.58-6.95-1.58-10.52-.55,1.94-2.24,4.52-1.62,6.88-1.3,1.28.18,2.43,1.2,3.64,1.84h0Z"/>
  <path class="cls-10" d="m26.15,67.53c3.25,1.56,6.61,1.89,10.09.92-2.53,1.97-7.82,1.48-10.09-.92Z"/>
  <path class="cls-10" d="m43.65,60.62c.09-2,.18-4,.27-6,1.31,2.14,1.35,4.73-.27,6Z"/>
  <path class="cls-10" d="m20.62,27.73c.11,2.35.22,4.7.34,7.05-1.42-1.76-1.59-5.33-.34-7.05Z"/>
  <path class="cls-23" d="m40.08,48.37c-.67-.47-1.33-.95-2-1.42.67.47,1.33.95,2,1.42Z"/>
  <path class="cls-10" d="m21.85,36.65c.51.67,1.03,1.33,1.54,2-.51-.67-1.03-1.33-1.54-2Z"/>
  <path class="cls-10" d="m36.17,68.5c.78-.38,1.56-.76,2.34-1.14-.78.38-1.56.76-2.34,1.14Z"/>
  <path class="cls-10" d="m21.51,25.26c-.32.81-.64,1.62-.96,2.43.32-.81.64-1.62.96-2.43Z"/>
  <path class="cls-23" d="m27.64,46.42c-.4.24-.81.48-1.21.72.4-.24.81-.48,1.21-.72Z"/>
  <path class="cls-10" d="m22.06,24.41c-.2.3-.39.61-.59.91.2-.3.39-.61.59-.91Z"/>
  <path class="cls-10" d="m20.91,34.71c.16.35.31.71.47,1.06-.16-.35-.31-.71-.47-1.06Z"/>
  <path class="cls-10" d="m21.34,35.72c.19.33.38.66.56.99-.19-.33-.38-.66-.56-.99Z"/>
  <path class="cls-23" d="m25.76,47.44c-.25.22-.51.43-.76.65.25-.22.51-.43.76-.65Z"/>
  <path class="cls-23" d="m41.16,49.51c-.21-.23-.41-.45-.62-.68.21.23.41.45.62.68Z"/>
  <path class="cls-23" d="m42,50.42c-.23-.25-.46-.5-.7-.75.23.25.46.5.7.75Z"/>
  <path class="cls-23" d="m23.02,50.01c-.23.26-.46.52-.7.77.23-.26.46-.52.7-.77Z"/>
  <path class="cls-23" d="m22,51.3c-.2.35-.41.7-.61,1.05.2-.35.41-.7.61-1.05Z"/>
  <path class="cls-10" d="m43.32,61.75c.13-.33.26-.67.4-1-.13.33-.26.67-.4,1Z"/>
  <path class="cls-10" d="m42.89,62.74c.16-.35.33-.71.49-1.06-.16.35-.33.71-.49,1.06Z"/>
  <path class="cls-10" d="m42.24,63.71c.24-.35.47-.69.71-1.04-.24.35-.47.69-.71,1.04Z"/>
  <path class="cls-10" d="m25.19,66.86c.33.23.67.47,1,.7-.33-.23-.67-.47-1-.7Z"/>
  <path class="cls-10" d="m38.48,67.44c.21-.15.43-.31.64-.46-.21.15-.43.31-.64.46Z"/>
  <path class="cls-23" d="m22.35,50.74l-.42.63.42-.63Z"/>
  <path class="cls-23" d="m23.44,49.42c-.14.18-.27.36-.41.55.14-.18.27-.36.41-.55Z"/>
  <path class="cls-23" d="m23.89,48.9c-.17.19-.33.37-.5.56.17-.19.33-.37.5-.56Z"/>
  <path class="cls-23" d="m40.58,48.85c-.18-.17-.35-.35-.53-.52.18.17.35.35.53.52Z"/>
  <path class="cls-23" d="m24.41,48.48c-.19.16-.38.32-.57.48.19-.16.38-.32.57-.48Z"/>
  <path class="cls-23" d="m24.9,48.15c-.17.12-.34.25-.51.37.17-.12.34-.25.51-.37Z"/>
  <path class="cls-23" d="m26.32,47.19c-.2.1-.4.19-.6.29.2-.1.4-.19.6-.29Z"/>
  <path class="cls-10" d="m22.4,23.75c-.14.21-.29.42-.43.64.14-.21.29-.42.43-.64Z"/>
  <path class="cls-20" d="m70.21,38.26c0-.37,0-.74,0-1.11,0,.37,0,.74,0,1.11Z"/>
  <path class="cls-20" d="m70.21,40.67c0-.37,0-.74,0-1.12,0,.37,0,.74,0,1.12Z"/>
  <path class="cls-20" d="m70.12,58.01c.03-.36.06-.73.09-1.09-.03.36-.06.73-.09,1.09Z"/>
  <path class="cls-20" d="m70.23,30.07c0-.21,0-.43,0-.64,0,.21,0,.43,0,.64Z"/>
  <path class="cls-25" d="m41.99,149.6c.02,5.61.05,11.22.07,16.83-.16-.59-.46-1.18-.47-1.78-.04-4.49-.03-8.99,0-13.49,0-.52.26-1.04.4-1.57h0Z"/>
  <path class="cls-25" d="m41.98,148.15c.03.13.03.26,0,.39-.05-.09-.11-.18-.15-.28,0-.02.09-.07.14-.11h0Z"/>
  <path class="cls-8" d="m36.74,31.05c-.14,2.54-2.25,4.39-4.86,4.24-2.36-.13-4.41-2.62-4.29-5.19.11-2.22,2.42-4.1,4.89-3.96,2.3.13,4.38,2.54,4.26,4.91Z"/>
  <path class="cls-8" d="m32.16,61.81c-2.61,0-4.49-1.9-4.51-4.55-.02-2.63,1.87-4.63,4.37-4.61,2.67.02,4.71,1.93,4.69,4.38-.03,2.83-1.89,4.79-4.55,4.78Z"/>
  <text class="cls-30" transform="translate(185.15 1.03) rotate(89.16)"><tspan class="cls-27" x="0" y="0">G</tspan><tspan class="cls-31" x="32.15" y="0">LAM</tspan><tspan class="cls-29" x="123.86" y="0">P</tspan><tspan class="cls-32" x="147.65" y="0">HO</tspan><tspan class="cls-28" x="214.66" y="0">N</tspan><tspan x="249.22" y="0">E</tspan></text>
</svg>